<?xml version="1.0" encoding="UTF-8" standalone="no"?>
<!-- Created with Inkscape (http://www.inkscape.org/) -->

<svg
   width="1200"
   height="1200"
   viewBox="0 0 317.49999 317.5"
   version="1.1"
   id="svg729"
   inkscape:version="1.2.2 (b0a84865, 2022-12-01)"
   sodipodi:docname="new1.svg"
   xmlns:inkscape="http://www.inkscape.org/namespaces/inkscape"
   xmlns:sodipodi="http://sodipodi.sourceforge.net/DTD/sodipodi-0.dtd"
   xmlns="http://www.w3.org/2000/svg"
   xmlns:svg="http://www.w3.org/2000/svg">
  <sodipodi:namedview
     id="namedview731"
     pagecolor="#858585"
     bordercolor="#000000"
     borderopacity="0.25"
     inkscape:showpageshadow="false"
     inkscape:pageopacity="0"
     inkscape:pagecheckerboard="true"
     inkscape:deskcolor="#d1d1d1"
     inkscape:document-units="mm"
     showgrid="false"
     showborder="false"
     borderlayer="false"
     showguides="true"
     inkscape:zoom="0.72808085"
     inkscape:cx="431.27079"
     inkscape:cy="600.8948"
     inkscape:window-width="2560"
     inkscape:window-height="1387"
     inkscape:window-x="0"
     inkscape:window-y="25"
     inkscape:window-maximized="0"
     inkscape:current-layer="layer1" />
  <defs
     id="defs726">
    <inkscape:path-effect
       effect="simplify"
       id="path-effect13606"
       is_visible="true"
       lpeversion="1"
       steps="40"
       threshold="0.002"
       smooth_angles="0"
       helper_size="5"
       simplify_individual_paths="false"
       simplify_just_coalesce="false" />
  </defs>
  <g
     inkscape:label="Layer 1"
     inkscape:groupmode="layer"
     id="layer1">
    <path
       d=""
       fill="none"
       stroke="#000000"
       stroke-width="2.87182"
       id="path11858" />
    <path
       d=""
       fill="none"
       stroke="#000000"
       stroke-width="2.87182"
       id="path11866" />
    <path
       d=""
       fill="none"
       stroke="#000000"
       stroke-width="2.87182"
       id="path11868" />
    <path
       d=""
       fill="none"
       stroke="#000000"
       stroke-width="2.87182"
       id="path11870" />
    <path
       d=""
       fill="none"
       stroke="#000000"
       stroke-width="2.87182"
       id="path11872" />
    <path
       d=""
       fill="none"
       stroke="#000000"
       stroke-width="2.87182"
       id="path11876" />
    <path
       d=""
       fill="none"
       stroke="#000000"
       stroke-width="2.87182"
       id="path11878" />
    <path
       d=""
       fill="none"
       stroke="#000000"
       stroke-width="2.87182"
       id="path11882" />
    <path
       d=""
       fill="none"
       stroke="#000000"
       stroke-width="2.87182"
       id="path11894" />
    <path
       d=""
       fill="none"
       stroke="#000000"
       stroke-width="2.87182"
       id="path11896" />
    <path
       d=""
       fill="none"
       stroke="#000000"
       stroke-width="2.87182"
       id="path11898" />
    <path
       d=""
       fill="none"
       stroke="#000000"
       stroke-width="2.87182"
       id="path11900" />
    <path
       d=""
       fill="none"
       stroke="#000000"
       stroke-width="2.87182"
       id="path11902" />
    <path
       d=""
       fill="none"
       stroke="#000000"
       stroke-width="2.87182"
       id="path11908" />
    <path
       d=""
       fill="none"
       stroke="#000000"
       stroke-width="2.87182"
       id="path11910" />
    <path
       d=""
       fill="none"
       stroke="#000000"
       stroke-width="2.87182"
       id="path11928" />
    <path
       d=""
       fill="none"
       stroke="#000000"
       stroke-width="2.87182"
       id="path11932" />
    <path
       d=""
       fill="none"
       stroke="#000000"
       stroke-width="2.87182"
       id="path11940" />
    <path
       d=""
       fill="none"
       stroke="#000000"
       stroke-width="2.87182"
       id="path11942" />
    <path
       d=""
       fill="none"
       stroke="#000000"
       stroke-width="2.87182"
       id="path11946" />
    <path
       d=""
       fill="none"
       stroke="#000000"
       stroke-width="2.87182"
       id="path11954" />
    <path
       d=""
       fill="none"
       stroke="#000000"
       stroke-width="2.87182"
       id="path11956" />
    <path
       d=""
       fill="none"
       stroke="#000000"
       stroke-width="2.87182"
       id="path11958" />
    <path
       d=""
       fill="none"
       stroke="#000000"
       stroke-width="2.87182"
       id="path11972" />
    <path
       d=""
       fill="none"
       stroke="#000000"
       stroke-width="2.87182"
       id="path11980" />
    <path
       d=""
       fill="none"
       stroke="#000000"
       stroke-width="2.87182"
       id="path11984" />
    <path
       d=""
       fill="none"
       stroke="#000000"
       stroke-width="2.87182"
       id="path11994" />
    <path
       d=""
       fill="none"
       stroke="#000000"
       stroke-width="2.87182"
       id="path12000" />
    <path
       d=""
       fill="none"
       stroke="#000000"
       stroke-width="2.87182"
       id="path12002" />
    <path
       d=""
       fill="none"
       stroke="#000000"
       stroke-width="2.87182"
       id="path12004" />
    <path
       d=""
       fill="none"
       stroke="#000000"
       stroke-width="2.87182"
       id="path12008" />
    <path
       d=""
       fill="none"
       stroke="#000000"
       stroke-width="2.87182"
       id="path12010" />
    <path
       d=""
       fill="none"
       stroke="#000000"
       stroke-width="2.87182"
       id="path12012" />
    <path
       d=""
       fill="none"
       stroke="#000000"
       stroke-width="2.87182"
       id="path12014" />
    <path
       d=""
       fill="none"
       stroke="#000000"
       stroke-width="2.87182"
       id="path12018" />
    <path
       d=""
       fill="none"
       stroke="#000000"
       stroke-width="2.87182"
       id="path12028" />
    <path
       d=""
       fill="none"
       stroke="#000000"
       stroke-width="2.87182"
       id="path12032" />
    <path
       d=""
       fill="none"
       stroke="#000000"
       stroke-width="2.87182"
       id="path12034" />
    <path
       d=""
       fill="none"
       stroke="#000000"
       stroke-width="2.87182"
       id="path12036" />
    <path
       d=""
       fill="none"
       stroke="#000000"
       stroke-width="2.87182"
       id="path12040" />
    <path
       d=""
       fill="none"
       stroke="#000000"
       stroke-width="2.87182"
       id="path12042" />
    <path
       d=""
       fill="none"
       stroke="#000000"
       stroke-width="2.87182"
       id="path12046" />
    <path
       id="path70458"
       style="fill:#000000;fill-opacity:1"
       d="m 128.14618,13.011092 c -1.65753,-0.03307 -3.22843,1.572426 -2.836,5.430676 -2.92602,8.912413 0.38436,18.187485 -1.62987,27.317196 0.56221,9.643082 -0.88697,19.302031 0,28.814262 -2.02856,8.259857 -0.41839,16.871199 -2.56522,25.019661 -5.94004,7.405783 -11.42358,15.792873 -16.80931,23.820253 -0.66614,6.64308 -6.841005,7.39213 -10.211782,12.91704 -1.912423,6.28151 -8.031474,9.09758 -11.595674,14.42393 -4.994445,5.32159 -8.671176,11.9758 -14.33866,16.58813 -7.296646,6.93764 -14.257345,14.48407 -22.909713,19.95847 -4.083154,4.89075 -10.416012,4.70218 -16.155086,6.54896 -5.689948,1.20172 -0.154301,3.06189 -12.379606,-5.98517 -4.459018,-4.48005 -1.505608,-6.29704 -2.348177,-15.29312 0.893487,-11.7539 6.715033,-23.04305 11.96206,-33.30236 3.926906,-8.11763 9.742269,-15.28926 15.124142,-22.52783 9.330846,-8.52037 17.39564,-18.711438 28.61014,-24.847058 7.240688,-5.286498 14.193051,-11.079799 22.367627,-14.791861 6.671082,-6.177699 -5.354935,-6.121415 -9.253182,-2.849439 -5.477142,4.29398 -9.791622,5.61738 -14.597042,10.792623 -5.432757,5.167173 -8.001783,6.248148 -16.176274,11.902116 -7.092128,6.772779 -7.103899,6.658719 -12.63282,11.705229 -5.615386,5.01499 -9.58458,7.9754 -11.671639,13.71079 -6.847275,10.15754 -12.368318,21.03059 -16.91163,32.41766 -1.522542,5.58096 -1.042399,9.07813 -3.612699,17.17931 -1.7758305,6.85615 -1.4243916,9.65776 -0.5126302,19.7528 3.2883402,5.45569 -0.1085369,10.03292 10.4954832,13.65963 -0.654629,-0.52883 6.16384,-0.99163 9.121407,-2.87631 5.819297,-0.96938 12.867452,-1.83577 18.004586,-5.91695 16.012318,-9.19523 27.517689,-23.52864 38.989868,-37.5946 3.010429,-5.08814 8.152737,-7.68267 10.648446,-13.19971 8.386315,-12.63606 18.509865,-23.81693 26.826265,-36.49235 1.82519,-2.0256 -0.39518,10.8034 0.42272,14.86731 -0.37457,8.27949 -0.0872,16.37911 -0.60152,24.60263 1.23196,10.21604 -1.25233,20.59866 -0.10128,30.68598 1.18915,6.67597 -1.19365,11.45994 -3.37034,16.40676 -2.05613,3.12792 -6.9438,12.87543 -10.82363,8.21086 -1.76904,-4.08283 -5.38211,-10.88469 -10.403497,-5.80119 -2.982305,3.77403 1.258779,9.1261 3.234945,14.48593 -0.174051,7.15671 0.869452,9.49028 -6.046143,15.03113 -5.570545,4.33325 -3.530353,2.49919 -6.74119,5.72265 -2.324686,4.02575 -7.166311,6.58076 -10.908379,11.84734 -3.685381,3.53704 -6.436434,9.40577 -14.076143,8.14679 -8.25784,-2.81287 -6.536319,-6.83191 -8.333858,-13.76919 -0.02604,-8.13256 -0.183012,-10.4722 2.332674,-16.95865 0.638579,-5.12443 2.710438,-6.17204 9.614917,-11.15281 4.623788,-3.05107 6.455194,-5.36359 8.290967,-12.78837 5.568357,-3.733 11.337802,-2.03406 13.373344,-8.66304 -1.971255,-9.91844 -3.225118,-5.87761 -9.229928,-2.44222 -3.857482,3.91794 -7.191084,1.63482 -14.661637,8.73693 -3.646566,3.08107 -3.035714,2.36572 -8.314738,11.6427 -2.855029,9.42677 -4.040885,10.80871 -6.038391,16.41554 -4.141505,6.4098 -3.56963,7.34089 -6.757211,14.66473 -0.802994,3.33626 -2.016814,5.51229 0.523999,14.16606 3.189147,3.66534 7.232681,5.36071 12.156364,6.62699 10.090525,1.43545 19.090052,-1.02327 25.761219,-7.87342 5.422276,-5.98736 10.678619,-10.67849 8.661486,-7.64708 3.282636,-4.34527 4.944495,-3.15751 7.157703,-7.53856 4.888207,-3.95791 7.688957,-9.38717 10.790557,-13.14855 1.91388,-5.0043 4.74448,1.4057 4.22765,8.15299 -0.24636,6.91437 1.08272,7.31398 2.55126,10.30635 2.55977,5.40073 2.47863,13.06272 6.47196,17.48834 3.64982,9.82576 4.71486,20.44169 6.60011,30.89372 2.8393,7.22635 -0.79521,19.76012 9.41752,21.50618 4.40631,-0.19453 5.03261,-0.065 6.1991,-1.23145 3.44674,-5.99769 -3.75264,-17.25261 -8.08839,-23.52415 -3.66002,-10.37831 -5.86526,-20.81638 -8.59586,-31.31281 -1.54304,-9.48718 3.83489,-16.30721 3.45715,-25.92607 -0.7772,-9.13971 0.17662,-18.22232 -1.20664,-27.34923 -0.15443,-6.10274 0.0855,-11.04094 3.61838,-16.22692 5.34547,-7.89072 10.49848,-16.10731 16.54938,-23.40736 2.20948,-6.19495 7.63658,-10.29486 10.9554,-15.8228 2.80623,-5.46095 8.9025,-8.17008 11.68869,-13.21677 4.52604,0.60201 9.35596,8.198 13.91543,0.75448 2.78641,-8.49848 -12.84529,-1.14579 -9.13587,-10.38283 5.87779,-4.1369 9.45345,-10.89169 15.12724,-15.12053 7.72684,-4.37749 7.71807,5.14869 5.24154,10.24331 0.67775,7.74229 -8.58283,7.54568 -8.98446,14.01413 -0.0729,5.83036 7.69421,1.93524 9.96631,-1.72651 3.5941,-4.70394 7.33974,-10.29312 7.46363,-16.23519 0.13642,-5.79349 -2.35598,-15.73837 -9.54722,-14.56655 -5.79479,1.25492 -9.63885,6.74348 -14.50764,9.80871 -3.97996,4.06268 -7.46735,5.78145 -10.3818,11.47423 -2.34258,5.82236 -3.74621,8.03199 -10.16527,15.22233 -4.80984,4.7192 -3.69231,4.32327 -11.41022,12.88913 -5.08787,8.1649 -6.4528,12.90584 -11.45608,18.97559 -5.1135,6.1136 -7.00624,8.01387 -9.1364,13.35319 -1.85135,-13.60287 -0.36929,-27.18841 -0.7028,-40.92102 -0.79424,-8.31419 1.47311,-16.81774 -0.45682,-24.8605 0.22036,-7.76147 0.61066,-16.02079 4.39095,-23.049751 5.12285,-8.587928 11.59235,-9.326525 15.04146,-15.885336 3.25611,-7.176646 6.79243,-14.266889 12.05404,-20.227706 8.09577,-7.918377 14.03374,-17.867104 22.85597,-24.911141 4.751,-5.574894 11.22419,-1.086863 8.66304,5.550566 -0.99036,6.626059 -0.97749,13.427056 -3.25406,19.834448 -0.79646,5.954332 -4.13216,11.294639 -3.77393,17.333826 -2.12402,10.31461 1.04406,4.412224 7.02799,2.420007 -1.24173,-7.093217 4.57483,-13.25308 4.55063,-19.785355 0.25538,-7.851619 4.30452,-15.662486 3.18016,-23.867277 0.96293,-6.545107 -2.3592,-12.635514 -9.13639,-13.976408 -12.59296,2.731065 -19.08305,14.52532 -27.56886,22.962939 -5.2625,4.178224 -6.83124,10.599071 -11.29802,15.384591 -2.62162,4.864232 -7.63656,9.289956 -9.62577,12.333097 -3.50078,-1.411999 -13.226,22.827009 -9.95133,-8.207251 -1.41295,-14.296141 1.08428,-28.634486 1.08728,-42.974638 1.57078,-4.15247 -0.70334,-6.903307 -2.83446,-6.945829 z m -7.93801,192.875048 c 1.24686,-0.085 0.14973,8.59924 1.0914,11.42514 3.87373,7.23664 2.71656,14.47762 -2.92127,13.79864 -3.47835,-2.24744 0.60141,-5.40612 -1.28002,-8.83253 -3.64193,-5.75079 -1.12917,-7.82155 1.30018,-13.69116 0.87762,-1.8975 1.44446,-2.67519 1.80971,-2.70009 z"
       sodipodi:nodetypes="scccccccccccccccccccccccccccccccccccccccccccccccccccccccccccccccccccccccccccccccccccccccccccccccccccccccssccccs" />
    <path
       d=""
       fill="none"
       stroke="#000000"
       stroke-width="1.40559"
       id="path70460" />
    <path
       d=""
       fill="none"
       stroke="#000000"
       stroke-width="1.40559"
       id="path70462" />
    <path
       d=""
       fill="none"
       stroke="#000000"
       stroke-width="1.40559"
       id="path70464" />
    <path
       d=""
       fill="none"
       stroke="#000000"
       stroke-width="1.40559"
       id="path70468" />
    <path
       d=""
       fill="none"
       stroke="#000000"
       stroke-width="1.40559"
       id="path70470" />
    <path
       d=""
       fill="none"
       stroke="#000000"
       stroke-width="1.40559"
       id="path70472" />
    <path
       d="m 135.62792,106.19921 v 0"
       fill="none"
       stroke="#000000"
       stroke-width="1.40559"
       id="path70474" />
    <path
       d=""
       fill="none"
       stroke="#000000"
       stroke-width="1.40559"
       id="path70476" />
    <path
       d=""
       fill="none"
       stroke="#000000"
       stroke-width="1.40559"
       id="path70478" />
    <path
       d=""
       fill="none"
       stroke="#000000"
       stroke-width="1.40559"
       id="path70480" />
    <path
       d=""
       fill="none"
       stroke="#000000"
       stroke-width="1.40559"
       id="path70482" />
    <path
       d=""
       fill="none"
       stroke="#000000"
       stroke-width="1.40559"
       id="path70484" />
    <path
       d=""
       fill="none"
       stroke="#000000"
       stroke-width="1.40559"
       id="path70486" />
    <path
       d=""
       fill="none"
       stroke="#000000"
       stroke-width="1.40559"
       id="path70488" />
    <path
       d=""
       fill="none"
       stroke="#000000"
       stroke-width="1.40559"
       id="path70490" />
    <path
       d=""
       fill="none"
       stroke="#000000"
       stroke-width="1.40559"
       id="path70492" />
    <path
       d=""
       fill="none"
       stroke="#000000"
       stroke-width="1.40559"
       id="path70494" />
    <path
       d=""
       fill="none"
       stroke="#000000"
       stroke-width="1.40559"
       id="path70496" />
    <path
       d=""
       fill="none"
       stroke="#000000"
       stroke-width="1.40559"
       id="path70498" />
    <path
       d=""
       fill="none"
       stroke="#000000"
       stroke-width="1.40559"
       id="path70500" />
    <path
       d=""
       fill="none"
       stroke="#000000"
       stroke-width="1.40559"
       id="path70502" />
    <path
       d=""
       fill="none"
       stroke="#000000"
       stroke-width="1.40559"
       id="path70504" />
    <path
       d=""
       fill="none"
       stroke="#000000"
       stroke-width="1.40559"
       id="path70506" />
    <path
       d=""
       fill="none"
       stroke="#000000"
       stroke-width="1.40559"
       id="path70508" />
    <path
       d=""
       fill="none"
       stroke="#000000"
       stroke-width="1.40559"
       id="path70510" />
    <path
       d=""
       fill="none"
       stroke="#000000"
       stroke-width="1.40559"
       id="path70512" />
    <path
       d=""
       fill="none"
       stroke="#000000"
       stroke-width="1.40559"
       id="path70514" />
    <path
       d=""
       fill="none"
       stroke="#000000"
       stroke-width="1.40559"
       id="path70516" />
    <path
       d=""
       fill="none"
       stroke="#000000"
       stroke-width="1.40559"
       id="path70518" />
    <path
       d=""
       fill="none"
       stroke="#000000"
       stroke-width="1.40559"
       id="path70520" />
    <path
       d=""
       fill="none"
       stroke="#000000"
       stroke-width="1.40559"
       id="path70522" />
    <path
       d=""
       fill="none"
       stroke="#000000"
       stroke-width="1.40559"
       id="path70524" />
    <path
       d=""
       fill="none"
       stroke="#000000"
       stroke-width="1.40559"
       id="path70526" />
    <path
       d=""
       fill="none"
       stroke="#000000"
       stroke-width="1.40559"
       id="path70530" />
    <path
       d=""
       fill="none"
       stroke="#000000"
       stroke-width="1.40559"
       id="path70534" />
    <path
       d=""
       fill="none"
       stroke="#000000"
       stroke-width="1.40559"
       id="path70536" />
    <path
       d=""
       fill="none"
       stroke="#000000"
       stroke-width="1.40559"
       id="path70538" />
    <path
       d=""
       fill="none"
       stroke="#000000"
       stroke-width="1.40559"
       id="path70540" />
    <path
       d=""
       fill="none"
       stroke="#000000"
       stroke-width="1.40559"
       id="path70542" />
    <path
       d=""
       fill="none"
       stroke="#000000"
       stroke-width="1.40559"
       id="path70544" />
    <path
       d=""
       fill="none"
       stroke="#000000"
       stroke-width="1.40559"
       id="path70546" />
    <path
       d=""
       fill="none"
       stroke="#000000"
       stroke-width="1.40559"
       id="path70548" />
    <path
       d=""
       fill="none"
       stroke="#000000"
       stroke-width="1.40559"
       id="path70550" />
    <path
       d=""
       fill="none"
       stroke="#000000"
       stroke-width="1.40559"
       id="path70552" />
    <path
       d=""
       fill="none"
       stroke="#000000"
       stroke-width="1.40559"
       id="path70554" />
    <path
       d=""
       fill="none"
       stroke="#000000"
       stroke-width="1.40559"
       id="path70556" />
    <path
       d=""
       fill="none"
       stroke="#000000"
       stroke-width="1.40559"
       id="path70558" />
    <path
       d=""
       fill="none"
       stroke="#000000"
       stroke-width="1.40559"
       id="path70560" />
    <path
       d=""
       fill="none"
       stroke="#000000"
       stroke-width="1.40559"
       id="path70562" />
    <path
       d=""
       fill="none"
       stroke="#000000"
       stroke-width="1.40559"
       id="path70564" />
    <path
       d=""
       fill="none"
       stroke="#000000"
       stroke-width="1.40559"
       id="path70566" />
    <path
       d=""
       fill="none"
       stroke="#000000"
       stroke-width="1.40559"
       id="path70570" />
    <path
       d=""
       fill="none"
       stroke="#000000"
       stroke-width="1.40559"
       id="path70572" />
    <path
       d=""
       fill="none"
       stroke="#000000"
       stroke-width="1.40559"
       id="path70574" />
    <path
       d=""
       fill="none"
       stroke="#000000"
       stroke-width="1.40559"
       id="path70576" />
    <path
       d=""
       fill="none"
       stroke="#000000"
       stroke-width="1.40559"
       id="path70580" />
    <path
       d=""
       fill="none"
       stroke="#000000"
       stroke-width="1.40559"
       id="path70582" />
    <path
       d=""
       fill="none"
       stroke="#000000"
       stroke-width="1.40559"
       id="path70584" />
    <path
       d=""
       fill="none"
       stroke="#000000"
       stroke-width="1.40559"
       id="path70586" />
    <path
       d=""
       fill="none"
       stroke="#000000"
       stroke-width="1.40559"
       id="path70590" />
    <path
       d=""
       fill="none"
       stroke="#000000"
       stroke-width="1.40559"
       id="path70592" />
    <path
       d=""
       fill="none"
       stroke="#000000"
       stroke-width="1.40559"
       id="path70594" />
    <path
       d=""
       fill="none"
       stroke="#000000"
       stroke-width="1.40559"
       id="path70600" />
    <path
       d=""
       fill="none"
       stroke="#000000"
       stroke-width="1.40559"
       id="path70602" />
    <path
       d=""
       fill="none"
       stroke="#000000"
       stroke-width="1.40559"
       id="path70604" />
    <path
       d=""
       fill="none"
       stroke="#000000"
       stroke-width="1.40559"
       id="path70606" />
    <path
       d=""
       fill="none"
       stroke="#000000"
       stroke-width="1.40559"
       id="path70608" />
    <path
       d=""
       fill="none"
       stroke="#000000"
       stroke-width="1.40559"
       id="path70610" />
    <path
       d=""
       fill="none"
       stroke="#000000"
       stroke-width="1.40559"
       id="path70612" />
    <path
       d=""
       fill="none"
       stroke="#000000"
       stroke-width="1.40559"
       id="path70614" />
    <path
       d=""
       fill="none"
       stroke="#000000"
       stroke-width="1.40559"
       id="path70616" />
    <path
       d=""
       fill="none"
       stroke="#000000"
       stroke-width="1.40559"
       id="path70618" />
    <path
       d=""
       fill="none"
       stroke="#000000"
       stroke-width="1.40559"
       id="path70620" />
    <path
       d=""
       fill="none"
       stroke="#000000"
       stroke-width="1.40559"
       id="path70624" />
    <path
       d=""
       fill="none"
       stroke="#000000"
       stroke-width="1.40559"
       id="path70626" />
    <path
       d=""
       fill="none"
       stroke="#000000"
       stroke-width="1.40559"
       id="path70628" />
  </g>
</svg>
