<?xml version="1.0" encoding="UTF-8" standalone="no"?>
<svg
   viewBox="0 0 100 100"
   role="img"
   aria-label="Minimal rose icon 01"
   version="1.1"
   id="svg399"
   sodipodi:docname="rose2.svg"
   inkscape:version="1.2.2 (b0a84865, 2022-12-01)"
   inkscape:export-filename="rose1.png"
   inkscape:export-xdpi="172.8"
   inkscape:export-ydpi="172.8"
   xmlns:inkscape="http://www.inkscape.org/namespaces/inkscape"
   xmlns:sodipodi="http://sodipodi.sourceforge.net/DTD/sodipodi-0.dtd"
   xmlns="http://www.w3.org/2000/svg"
   xmlns:svg="http://www.w3.org/2000/svg">
  <defs
     id="defs403">
    <inkscape:path-effect
       effect="skeletal"
       id="path-effect10122"
       is_visible="true"
       lpeversion="1"
       pattern="m 10.17356,3.2 h 5.17571 c 3.863352,0 6.973559,3.110207 6.973559,6.973559 v 6.789199 c 0,3.863352 -3.110207,6.97356 -6.973559,6.97356 H 10.17356 C 6.310208,23.936318 3.2,20.82611 3.2,16.962758 V 10.173559 C 3.2,6.310207 6.310208,3.2 10.17356,3.2 Z"
       copytype="single_stretched"
       prop_scale="0.25"
       scale_y_rel="false"
       spacing="0"
       normal_offset="0"
       tang_offset="0"
       prop_units="false"
       vertical_pattern="false"
       hide_knot="false"
       fuse_tolerance="0" />
    <inkscape:path-effect
       effect="skeletal"
       id="path-effect9913"
       is_visible="true"
       lpeversion="1"
       pattern="m 10.17356,3.2 h 5.17571 c 3.863352,0 6.973559,3.110207 6.973559,6.973559 v 6.789199 c 0,3.863352 -3.110207,6.97356 -6.973559,6.97356 H 10.17356 C 6.310208,23.936318 3.2,20.82611 3.2,16.962758 V 10.173559 C 3.2,6.310207 6.310208,3.2 10.17356,3.2 Z"
       copytype="single_stretched"
       prop_scale="0.25"
       scale_y_rel="false"
       spacing="0"
       normal_offset="0"
       tang_offset="0"
       prop_units="false"
       vertical_pattern="false"
       hide_knot="false"
       fuse_tolerance="0" />
    <linearGradient
       id="linearGradient9183"
       inkscape:swatch="solid">
      <stop
         style="stop-color:#930000;stop-opacity:1;"
         offset="0"
         id="stop9181" />
    </linearGradient>
    <inkscape:path-effect
       effect="offset"
       id="path-effect8958"
       is_visible="true"
       lpeversion="1.2"
       linejoin_type="miter"
       unit="mm"
       offset="0"
       miter_limit="4"
       attempt_force_join="false"
       update_on_knot_move="true" />
  </defs>
  <sodipodi:namedview
     id="namedview401"
     pagecolor="#ffffff"
     bordercolor="#000000"
     borderopacity="0"
     inkscape:showpageshadow="2"
     inkscape:pageopacity="0"
     inkscape:pagecheckerboard="true"
     inkscape:deskcolor="#d1d1d1"
     showgrid="false"
     inkscape:zoom="2.7637022"
     inkscape:cx="76.889615"
     inkscape:cy="75.442281"
     inkscape:window-width="2560"
     inkscape:window-height="1387"
     inkscape:window-x="0"
     inkscape:window-y="25"
     inkscape:window-maximized="1"
     inkscape:current-layer="svg399" />
  <rect
     style="fill:#fffff4;fill-opacity:0.994398;stroke:#930000;stroke-width:1.00295;stroke-linecap:round;stroke-linejoin:round;paint-order:markers fill stroke"
     id="rect13631"
     width="99.062012"
     height="99.05381"
     x="0.43791741"
     y="0.43791741"
     ry="50" />
  <g
     id="g14414"
     transform="translate(5.4942415,-0.02461116)">
    <path
       style="fill:#710000;fill-opacity:0.994398;stroke:#930000;stroke-width:1;stroke-linecap:round;stroke-linejoin:round;stroke-dasharray:none;stroke-dashoffset:0;stroke-opacity:1;paint-order:markers fill stroke"
       d="m 35.529173,75.550379 c 0.485604,1.158697 0.827552,2.121879 1.330669,2.673436 0.460389,0.691321 1.472372,1.155113 2.606244,1.520346 2.324072,0.681149 5.013705,0.646717 7.861464,0.593479 l 2e-6,0 c 1.802825,-0.02243 3.392256,-0.01012 4.484844,-0.560542 0.658335,-0.229796 1.266845,-0.911577 1.796812,-1.720766 0.784843,-1.248698 1.36854,-2.832447 2.115868,-4.550536 0.225661,-0.52693 0.455782,-1.053628 0.691153,-1.579564 0.908948,-2.031046 1.878211,-3.996446 2.951756,-5.895687 4.062462,-6.638611 5.333527,-14.038844 5.468644,-19.957845 0.06905,-3.28687 -0.03846,-6.330495 0.08549,-8.901382 0.2367,-5.460638 1.699033,-8.42629 2.065901,-8.306634 l 1.613641,0.526298 c 0.352746,0.115049 -0.267342,2.81388 0.01039,7.763328 0.146942,2.417245 0.497586,5.358053 0.642259,8.869244 0.274089,6.516887 -0.861877,14.807913 -5.428815,22.587365 -0.954179,1.724552 -1.831924,3.536261 -2.683582,5.444582 -0.220446,0.493957 -0.437281,0.991122 -0.651298,1.490965 -0.668786,1.588933 -1.366762,3.393963 -2.458703,5.214379 -1e-6,0 -1e-6,10e-7 -2e-6,10e-7 -0.897607,1.52533 -2.283694,2.88698 -4.129539,3.760374 -2.332175,0.958318 -4.609422,1.092136 -6.548293,0.998934 -2.903669,0.114453 -6.06773,0.0855 -9.284748,-0.783624 -1.876885,-0.477113 -3.774452,-1.527802 -5.262996,-3.281038 -1.058701,-1.40744 -1.658119,-2.806012 -2.103081,-3.979606 -0.03345,-0.08822 -0.066,-0.175138 -0.09777,-0.260612 -0.529461,-1.366709 -1.032128,-2.565416 -1.723771,-3.484759 -3.220689,-2.882546 -5.466062,-6.471245 -6.661614,-10.227165 0,0 -10e-7,-3e-6 -10e-7,-3e-6 -1.214145,-3.812851 -1.468951,-7.612014 -1.466283,-10.780312 -0.01315,-3.897082 0.234459,-7.171186 0.219492,-9.855832 -0.07184,-5.499056 -1.244122,-8.366887 -0.892867,-8.545626 l 1.512713,-0.769756 c 0.368262,-0.187394 2.560235,2.927761 3.16773,9.097932 0.304428,2.878643 0.311111,6.292178 0.524343,9.937269 0.186172,2.955296 0.529953,6.327968 1.62581,9.324688 10e-7,0 10e-7,3e-6 10e-7,3e-6 1.103755,3.020921 3.068054,5.954907 5.760714,8.352108 1.207624,1.632646 2.056744,3.35087 2.745388,5.022208 0.03823,0.0891 0.07553,0.177232 0.112036,0.26435 z"
       id="path680"
       sodipodi:nodetypes="ccccc"
       inkscape:path-effect="#path-effect9913"
       inkscape:original-d="m 20.836794,33.936699 c 5.412978,10.637493 -2.905691,26.591229 9.939936,38.060469 4.37715,5.881486 0.918441,11.387899 16.564084,10.931729 9.89213,0.187103 7.968548,-4.371871 14.255925,-15.608165 9.609567,-16.055158 2.854345,-27.940826 6.198101,-38.19289"
       class="UnoptimicedTransforms" />
    <path
       d="m 63.957505,39.999063 c -2.205237,2.554944 -4.906054,4.798964 -8.205541,6.248469 -4.017217,1.611074 -8.156945,1.8076 -11.930031,1.726835 l -3e-6,0 c -6.022154,0.0258 -12.567005,-0.887958 -18.130903,-4.478323 l -2e-6,-2e-6 c -1.897841,-1.152094 -3.612474,-2.866047 -4.714359,-5.005048 -0.749041,-1.454054 -1.205929,-3.089466 -1.257772,-4.860141 0.21161,-2.3825 1.357371,-4.194093 2.773516,-5.273192 1.681071,-1.391588 3.51477,-2.265809 5.21639,-2.862267 3.865564,-1.422491 7.82134,-2.062991 11.598079,-2.01637 0,0 4e-6,1e-6 4e-6,1e-6 4.02158,0.01769 7.834487,0.693321 11.233154,2.277349 1.379992,0.624408 2.713384,1.516668 3.825399,2.752932 1.012697,1.107075 1.606198,2.590625 1.632313,4.203578 0.0167,2.024378 -0.960357,3.973125 -2.621784,5.220696 -1.826252,1.123448 -3.684403,1.295483 -5.072421,1.19012 -6.263552,-0.268274 -9.144417,-2.82989 -8.991431,-3.135862 l 0.759055,-1.518111 c 0.152986,-0.305972 3.165617,1.381251 8.22775,1.09824 1.065687,-0.107931 2.258115,-0.256287 2.828265,-0.82081 0.47361,-0.258652 0.679601,-1.106455 0.696711,-2.034273 0.02624,-0.358 -0.276688,-0.830731 -0.681421,-1.29367 -0.554283,-0.609271 -1.41672,-1.068337 -2.464808,-1.541009 -2.658784,-1.152729 -5.789646,-1.531565 -9.370782,-1.513841 0,1e-6 -4e-6,0 -4e-6,0 -3.18871,0.04661 -6.539473,0.665048 -9.813734,1.908962 -1.409102,0.565226 -2.727962,1.161908 -3.647709,1.998281 -0.570872,0.62292 -1.100246,1.187922 -0.950996,1.478282 -0.109591,0.739741 0.125827,1.510635 0.590434,2.276986 0.68335,1.12716 1.853557,2.22453 3.08108,3.155298 4.104615,2.853104 9.706873,3.476863 15.303122,3.608328 l 2e-6,0 c 3.620736,-0.01352 7.076554,-0.0757 9.878301,-1.323797 2.374332,-0.929508 4.421647,-2.711442 6.245037,-4.86221 0.873808,-1.030694 1.692984,-2.139887 2.463654,-3.262734 0.739219,-1.188008 1.23613,-2.429359 1.117601,-3.488289 -0.01,-1.021144 -0.57843,-2.135196 -1.315792,-3.13317 -0.96215,-1.269283 -2.356436,-2.317444 -3.830762,-3.240187 -1.856061,-1.141212 -3.886696,-1.998207 -5.892438,-2.674868 -5.302528,-1.77446 -10.404397,-2.247516 -14.649161,-2.080948 0,0 -3e-6,10e-7 -3e-6,10e-7 -8.815316,0.419167 -13.309936,3.764587 -13.584986,3.409054 l -1.038563,-1.342466 c -0.160747,-0.207785 4.008752,-5.071041 14.32509,-6.086358 0,0 3e-6,-1e-6 3e-6,-1e-6 4.66696,-0.495106 10.370341,-0.247661 16.384423,1.554134 2.290604,0.681027 4.68075,1.623448 6.989866,2.95802 1.841009,1.047875 3.707988,2.448389 5.265469,4.345027 1.300619,1.562731 2.263895,3.60434 2.472035,5.960929 0.110351,2.486235 -0.646796,4.804833 -1.925292,6.671262 -0.823956,1.291084 -1.758413,2.5798 -2.816055,3.805163 z"
       fill="none"
       stroke="currentColor"
       stroke-width="7"
       stroke-linecap="round"
       stroke-linejoin="round"
       id="path397"
       sodipodi:nodetypes="csssssc"
       style="fill:#790000;fill-opacity:0.994398;stroke:#8e0000;stroke-width:1;stroke-dasharray:none;stroke-opacity:1"
       inkscape:path-effect="#path-effect10122"
       inkscape:original-d="M 23.781248,21.46212 C 38.640456,9.9666859 73.902404,20.708541 64.614815,34.76783 58.000513,44.780373 51.845172,45.455188 43.845503,45.382434 28.099107,45.239226 22.192808,38.640793 22.306667,33.690371 c 0.117862,-5.124459 11.000212,-7.768677 17.000212,-7.768677 8,0 14.603942,2.79119 14.603942,6.79119 0,7 -10.21918,4.515899 -14.21918,2.515899"
       class="UnoptimicedTransforms"
       inkscape:label="path397" />
  </g>
  <path
     id="rect9967"
     style="display:none;fill:#ee0000;fill-opacity:0.994398;stroke:#930000;stroke-width:6.4;stroke-linecap:round;stroke-linejoin:round;paint-order:markers fill stroke"
     d="m 85.138126,21.871737 h 5.17571 c 3.863352,0 6.973559,3.110207 6.973559,6.973559 v 6.789199 c 0,3.863352 -3.110207,6.97356 -6.973559,6.97356 h -5.17571 c -3.863352,0 -6.97356,-3.110208 -6.97356,-6.97356 v -6.789199 c 0,-3.863352 3.110208,-6.973559 6.97356,-6.973559 z" />
</svg>
