<?xml version="1.0" encoding="UTF-8" standalone="no"?>
<svg
   width="256"
   height="256"
   viewBox="0 0 256 256"
   version="1.1"
   id="svg2568"
   sodipodi:docname="tulip1.svg"
   inkscape:version="1.2.2 (b0a84865, 2022-12-01)"
   inkscape:export-filename="tulip0.png"
   inkscape:export-xdpi="96"
   inkscape:export-ydpi="96"
   xmlns:inkscape="http://www.inkscape.org/namespaces/inkscape"
   xmlns:sodipodi="http://sodipodi.sourceforge.net/DTD/sodipodi-0.dtd"
   xmlns="http://www.w3.org/2000/svg"
   xmlns:svg="http://www.w3.org/2000/svg">
  <sodipodi:namedview
     id="namedview2570"
     pagecolor="#ffffff"
     bordercolor="#000000"
     borderopacity="0.25"
     inkscape:showpageshadow="2"
     inkscape:pageopacity="0"
     inkscape:pagecheckerboard="true"
     inkscape:deskcolor="#d1d1d1"
     showgrid="false"
     inkscape:zoom="2.4453051"
     inkscape:cx="-19.424979"
     inkscape:cy="150.28799"
     inkscape:window-width="2560"
     inkscape:window-height="1387"
     inkscape:window-x="0"
     inkscape:window-y="25"
     inkscape:window-maximized="1"
     inkscape:current-layer="svg2568" />
  <defs
     id="defs2548">
    <inkscape:path-effect
       effect="skeletal"
       id="path-effect6405"
       is_visible="true"
       lpeversion="1"
       pattern="M 25.786089,45.622626 H 77.290351 V 97.627041 H 25.786089 Z"
       copytype="single_stretched"
       prop_scale="0.1"
       scale_y_rel="false"
       spacing="0"
       normal_offset="0"
       tang_offset="0"
       prop_units="false"
       vertical_pattern="false"
       hide_knot="false"
       fuse_tolerance="0" />
    <inkscape:path-effect
       effect="skeletal"
       id="path-effect6401"
       is_visible="true"
       lpeversion="1"
       pattern="M 25.786089,45.622626 H 77.290351 V 97.627041 H 25.786089 Z"
       copytype="single_stretched"
       prop_scale="0.09"
       scale_y_rel="false"
       spacing="0"
       normal_offset="0"
       tang_offset="0"
       prop_units="false"
       vertical_pattern="false"
       hide_knot="false"
       fuse_tolerance="0" />
    <inkscape:path-effect
       effect="skeletal"
       id="path-effect6397"
       is_visible="true"
       lpeversion="1"
       pattern="M 25.786089,45.622626 H 77.290351 V 97.627041 H 25.786089 Z"
       copytype="single_stretched"
       prop_scale="0.09"
       scale_y_rel="false"
       spacing="0"
       normal_offset="0"
       tang_offset="0"
       prop_units="false"
       vertical_pattern="false"
       hide_knot="false"
       fuse_tolerance="0" />
    <inkscape:path-effect
       effect="skeletal"
       id="path-effect6393"
       is_visible="true"
       lpeversion="1"
       pattern="M 25.786089,45.622626 H 77.290351 V 97.627041 H 25.786089 Z"
       copytype="single_stretched"
       prop_scale="0.09"
       scale_y_rel="false"
       spacing="0"
       normal_offset="0"
       tang_offset="0"
       prop_units="false"
       vertical_pattern="false"
       hide_knot="false"
       fuse_tolerance="0" />
    <inkscape:path-effect
       effect="skeletal"
       id="path-effect6389"
       is_visible="true"
       lpeversion="1"
       pattern="M 25.786089,45.622626 H 77.290351 V 97.627041 H 25.786089 Z"
       copytype="single_stretched"
       prop_scale="0.09"
       scale_y_rel="false"
       spacing="0"
       normal_offset="0"
       tang_offset="0"
       prop_units="false"
       vertical_pattern="false"
       hide_knot="false"
       fuse_tolerance="0" />
    <inkscape:path-effect
       effect="skeletal"
       id="path-effect5799"
       is_visible="true"
       lpeversion="1"
       pattern="M 25.786089,45.622626 H 77.290351 V 97.627041 H 25.786089 Z"
       copytype="single_stretched"
       prop_scale="0.25"
       scale_y_rel="false"
       spacing="0"
       normal_offset="0"
       tang_offset="0"
       prop_units="false"
       vertical_pattern="false"
       hide_knot="false"
       fuse_tolerance="0" />
    <inkscape:path-effect
       effect="skeletal"
       id="path-effect5793"
       is_visible="true"
       lpeversion="1"
       pattern="M 25.786089,45.622626 H 77.290351 V 97.627041 H 25.786089 Z"
       copytype="single_stretched"
       prop_scale="-0.034335997"
       scale_y_rel="false"
       spacing="0"
       normal_offset="0"
       tang_offset="0"
       prop_units="false"
       vertical_pattern="false"
       hide_knot="false"
       fuse_tolerance="0" />
    <inkscape:path-effect
       effect="skeletal"
       id="path-effect5711"
       is_visible="true"
       lpeversion="1"
       pattern="M 25.786089,45.622626 H 77.290351 V 97.627041 H 25.786089 Z"
       copytype="single_stretched"
       prop_scale="0.04265932"
       scale_y_rel="false"
       spacing="0"
       normal_offset="0"
       tang_offset="0"
       prop_units="false"
       vertical_pattern="false"
       hide_knot="false"
       fuse_tolerance="0" />
    <inkscape:path-effect
       effect="skeletal"
       id="path-effect5651"
       is_visible="true"
       lpeversion="1"
       pattern="M 0,0 H 1"
       copytype="single_stretched"
       prop_scale="1"
       scale_y_rel="false"
       spacing="0"
       normal_offset="0"
       tang_offset="0"
       prop_units="false"
       vertical_pattern="false"
       hide_knot="false"
       fuse_tolerance="0" />
    <linearGradient
       id="gPetal"
       x1="115.88326"
       y1="27.959245"
       x2="115.88326"
       y2="125.81622"
       gradientTransform="matrix(0.3266818,-0.36680798,0.49291946,0.66819093,18.62817,132.56634)"
       gradientUnits="userSpaceOnUse">
      <stop
         offset="0"
         stop-color="#1a0000"
         id="stop2543"
         style="stop-color:#1a00a2;stop-opacity:1;" />
      <stop
         offset="1"
         stop-color="#0b0b0b"
         id="stop2545" />
    </linearGradient>
    <inkscape:path-effect
       effect="skeletal"
       id="path-effect5711-4"
       is_visible="true"
       lpeversion="1"
       pattern="M 25.786089,45.622626 H 77.290351 V 97.627041 H 25.786089 Z"
       copytype="single_stretched"
       prop_scale="0.25"
       scale_y_rel="false"
       spacing="0"
       normal_offset="0"
       tang_offset="0"
       prop_units="false"
       vertical_pattern="false"
       hide_knot="false"
       fuse_tolerance="0" />
    <inkscape:path-effect
       effect="skeletal"
       id="path-effect5799-9"
       is_visible="true"
       lpeversion="1"
       pattern="M 25.786089,45.622626 H 77.290351 V 97.627041 H 25.786089 Z"
       copytype="single_stretched"
       prop_scale="0.25"
       scale_y_rel="false"
       spacing="0"
       normal_offset="0"
       tang_offset="0"
       prop_units="false"
       vertical_pattern="false"
       hide_knot="false"
       fuse_tolerance="0" />
    <inkscape:path-effect
       effect="skeletal"
       id="path-effect5799-9-4"
       is_visible="true"
       lpeversion="1"
       pattern="M 25.786089,45.622626 H 77.290351 V 97.627041 H 25.786089 Z"
       copytype="single_stretched"
       prop_scale="0.040269419"
       scale_y_rel="false"
       spacing="0"
       normal_offset="0"
       tang_offset="0"
       prop_units="false"
       vertical_pattern="false"
       hide_knot="false"
       fuse_tolerance="0" />
    <inkscape:path-effect
       effect="skeletal"
       id="path-effect5793-2"
       is_visible="true"
       lpeversion="1"
       pattern="M 25.786089,45.622626 H 77.290351 V 97.627041 H 25.786089 Z"
       copytype="single_stretched"
       prop_scale="-0.034335997"
       scale_y_rel="false"
       spacing="0"
       normal_offset="0"
       tang_offset="0"
       prop_units="false"
       vertical_pattern="false"
       hide_knot="false"
       fuse_tolerance="0" />
    <inkscape:path-effect
       effect="skeletal"
       id="path-effect5711-6"
       is_visible="true"
       lpeversion="1"
       pattern="M 25.786089,45.622626 H 77.290351 V 97.627041 H 25.786089 Z"
       copytype="single_stretched"
       prop_scale="0.04265932"
       scale_y_rel="false"
       spacing="0"
       normal_offset="0"
       tang_offset="0"
       prop_units="false"
       vertical_pattern="false"
       hide_knot="false"
       fuse_tolerance="0" />
    <inkscape:path-effect
       effect="skeletal"
       id="path-effect6401-5"
       is_visible="true"
       lpeversion="1"
       pattern="M 25.786089,45.622626 H 77.290351 V 97.627041 H 25.786089 Z"
       copytype="single_stretched"
       prop_scale="0.083"
       scale_y_rel="false"
       spacing="0"
       normal_offset="0"
       tang_offset="0"
       prop_units="false"
       vertical_pattern="false"
       hide_knot="false"
       fuse_tolerance="0" />
    <inkscape:path-effect
       effect="skeletal"
       id="path-effect6401-7"
       is_visible="true"
       lpeversion="1"
       pattern="M 25.786089,45.622626 H 77.290351 V 97.627041 H 25.786089 Z"
       copytype="single_stretched"
       prop_scale="0.083"
       scale_y_rel="false"
       spacing="0"
       normal_offset="0"
       tang_offset="0"
       prop_units="false"
       vertical_pattern="false"
       hide_knot="false"
       fuse_tolerance="0" />
  </defs>
  <g
     id="g6329"
     inkscape:label="border">
    <g
       id="g7240"
       inkscape:label="circle">
      <rect
         style="fill:#fffff4;fill-opacity:0.994398;stroke:#51921e;stroke-width:1.0382;stroke-linecap:round;stroke-linejoin:round;stroke-dasharray:none;stroke-opacity:1;paint-order:markers fill stroke"
         id="rect7169"
         width="232.43684"
         height="232.4176"
         x="11.781574"
         y="11.7912"
         ry="117.31886"
         inkscape:label="dark" />
      <rect
         style="fill:#fffff4;fill-opacity:0.994398;stroke:#7daa14;stroke-width:2.3054;stroke-linecap:round;stroke-linejoin:round;stroke-dasharray:none;stroke-opacity:1;paint-order:markers fill stroke"
         id="rect4647"
         width="227.73921"
         height="227.72035"
         x="14.13039"
         y="14.139822"
         ry="114.9478"
         inkscape:label="green" />
    </g>
  </g>
  <g
     id="g6385"
     inkscape:label="plant border"
     style="fill:#fff9f5;fill-opacity:1">
    <g
       id="g6381"
       inkscape:label="leaves"
       style="fill:#fff9f5;fill-opacity:1">
      <path
         d="m 161.32553,179.70421 c -2.92786,-0.0682 -5.88814,0.51999 -7.93125,2.17609 -1.53693,1.19382 -2.7157,2.91447 -3.13763,4.74735 -0.16562,0.74368 -0.24247,1.45945 -0.14275,2.08259 0.11351,0.49047 0.19102,0.87612 0.34134,0.96609 0,0 0,0 0,0 -0.009,0.0231 0.10812,0.0744 0.13098,0.0575 0.25527,0.0905 0.75487,-0.2343 1.43449,-0.60073 0.93482,-0.50526 1.57831,-1.85072 2.28984,-3.33934 0.72557,-1.77585 1.13983,-3.65668 1.03274,-5.45194 -0.14331,-1.60555 -0.63207,-3.19002 -1.64635,-3.92683 l 0,0 c -1.22396,-1.27003 -3.65934,-1.3206 -6.10883,-1.1837 0.65475,-0.24809 0.7746,-0.16882 0.30437,0.01 -0.38413,0.2688 -0.80197,0.59515 -1.27857,0.9445 0,0 -1e-5,0 -1e-5,0 -1.38898,1.02556 -2.90746,1.98184 -4.58827,2.74409 0,0 0,0 -1e-5,0 -2.19336,0.98853 -4.59228,1.55952 -7.04587,1.61088 -3.21221,0.0386 -6.30775,-0.77435 -9.06238,-2.10249 -0.87925,-0.31797 -1.39673,-0.6659 -1.53569,-0.54165 0.0754,0.045 0.26679,-0.0653 0.64176,-0.29169 0,0 1e-5,0 1e-5,-1e-5 0.29106,-0.30982 0.44368,-0.52523 0.45013,-0.70602 -0.077,-0.17349 0.0898,0.0525 0.19062,0.60368 0,0 0,1e-5 0,1e-5 0.22019,0.63677 0.57994,1.29124 1.00071,1.97834 0,0 0,1e-5 0,1e-5 0.95245,1.47696 1.98289,2.80909 3.22004,3.66975 0.49536,0.26525 0.73176,0.49675 0.71002,0.40411 -0.0894,-0.0248 -0.22823,0.0179 -0.46156,0.10825 -0.21398,0.1516 -0.3176,0.21857 -0.31267,0.26276 0,0 0,0 0,0 1.55397,-2.69505 3.89147,-5.22324 7.10643,-6.65004 2.02407,-0.8933 4.43753,-1.12199 6.78844,-0.36324 0.78422,0.23488 1.63583,0.71861 2.4329,1.51374 0.70563,0.54225 1.1041,1.66511 0.95308,3.24303 0,1e-5 -10e-6,2e-5 -10e-6,3e-5 -0.6906,1.60852 -1.63223,2.43445 -2.46043,2.53438 -1e-5,0 -1e-5,0 -1e-5,0 -1.35408,0.45616 -2.58065,0.5295 -3.57485,0.46271 -1.52109,-0.0202 -2.97719,-0.7899 -3.97429,-2.2404 0,0 0,-1e-5 -1e-5,-1e-5 -0.7913,-1.5019 -0.95965,-2.94265 -0.79934,-4.08093 0.28041,-3.2562 1.5902,-6.16874 3.25148,-8.58912 1.72941,-2.7053 4.24335,-5.19622 7.58539,-6.5344 1.63333,-0.62667 3.44364,-0.83883 5.25006,-0.54544 2.0876,0.38892 3.90742,1.34931 5.36147,2.58469 l -2.98353,3.6062 c -1.01085,-0.80391 -2.09831,-1.42841 -3.16436,-1.57703 -0.88781,-0.16583 -1.88347,-0.0326 -2.8061,0.30865 -2.09129,0.71934 -3.85842,2.61483 -5.34499,4.74812 -1.3185,2.0628 -2.37157,4.22481 -2.48133,6.33757 0.0256,0.71496 -0.0253,1.23819 0.14149,1.32837 0,0 0,0 0,0 -0.16316,-0.0648 8e-5,-0.0501 0.0957,-0.0248 0.82219,-0.0157 1.46003,0.009 1.80865,-0.16986 0,0 0,0 0,0 0.0465,-0.2261 0.0174,0.04 -0.45192,0.74161 0.0399,0.79545 0.0167,1.10716 0.17271,1.06067 -0.003,-0.0619 -0.22718,-0.13692 -0.55034,-0.28749 -0.94715,-0.38923 -2.24531,-0.19484 -3.44253,0.26033 -1.96098,0.73992 -3.56419,2.63346 -4.90356,4.74607 0,0 0,1e-5 0,1e-5 -0.29796,0.54746 -0.81584,1.06255 -1.55184,1.48342 -0.71415,0.33833 -1.40815,0.46478 -2.03702,0.39923 -1.41845,-0.19826 -2.44816,-0.71888 -3.08994,-1.27148 -1.9123,-1.40449 -3.35516,-3.17693 -4.45731,-4.99066 0,0 0,0 0,0 -0.54065,-0.85273 -1.04595,-1.80784 -1.43737,-2.88025 0,0 0,-1e-5 0,-1e-5 -0.33467,-0.66592 -0.55593,-1.7539 -0.35419,-3.18967 0.10457,-0.62516 0.47285,-1.26876 1.11259,-1.87102 1e-5,0 1e-5,0 1e-5,-1e-5 0.76248,-0.55139 1.46746,-0.80227 2.04742,-0.7917 1.74509,-0.004 3.039,0.49143 3.865,0.9848 2.24514,1.05071 4.64168,1.71258 6.96537,1.64929 1.76796,-0.0263 3.55672,-0.46078 5.21538,-1.20126 0,0 0,0 0,0 1.2769,-0.56534 2.51153,-1.35632 3.73675,-2.24817 0,-1e-5 0,-1e-5 1e-5,-1e-5 0.40315,-0.29593 0.84641,-0.64053 1.35481,-0.99924 0.0235,-0.16843 0.63515,-0.52272 1.89006,-0.83496 3.04328,-0.45023 6.65537,-0.0367 9.63898,2.27262 0,1e-5 0,1e-5 0,1e-5 2.17699,1.97799 3.21287,4.66955 3.28771,7.24809 0.12337,2.625 -0.40896,5.18752 -1.38693,7.49698 -0.69374,1.88138 -1.91512,3.92673 -4.02353,5.43899 0,0 0,0 -1e-5,0 -0.97049,0.72751 -2.35009,1.31204 -4.07448,1.37982 -1.39518,-0.0331 -2.673,-0.62185 -3.61191,-1.6698 0,0 -1e-5,-1e-5 -1e-5,-1e-5 -0.89184,-1.11081 -1.3363,-2.30378 -1.44219,-3.38806 -0.17374,-1.33961 -0.069,-2.63361 0.22639,-3.81727 0.72405,-2.95803 2.46758,-5.55131 4.83189,-7.36521 3.24783,-2.42302 7.22055,-3.33457 10.96859,-3.14634 z"
         fill="none"
         stroke="#8b0000"
         stroke-width="8"
         stroke-linecap="round"
         id="path6373"
         style="fill:#fff9f5;fill-opacity:1;stroke:#51921e;stroke-width:0.767011;stroke-linecap:round;stroke-linejoin:round;stroke-miterlimit:21.4;stroke-dasharray:none;stroke-opacity:1;paint-order:markers stroke fill"
         sodipodi:nodetypes="csssssc"
         inkscape:original-d="m 161.41534,177.36574 c -16.58698,-0.63701 -16.53831,19.31103 -8.10155,13.7179 4.73793,-3.141 8.8976,-19.76892 -5.97441,-18.17925 -1.40636,0.15033 -8.51361,9.08395 -20.41656,3.42061 -9.74249,-4.63541 2.12692,13.42029 4.90301,8.80744 7.55783,-12.55834 18.99469,-2.53278 9.30627,-2.80536 -7.70974,-0.2169 3.63334,-24.76414 15.11717,-15.26325"
         transform="matrix(1.2615382,0,0,1.3473979,-79.576599,-21.863634)"
         inkscape:path-effect="#path-effect6389"
         class="UnoptimicedTransforms"
         inkscape:label="leaf3" />
      <path
         d="m 101.16915,191.11644 c -0.44838,-0.005 -0.47229,-0.0875 -0.10067,-0.0835 0.3883,-0.0761 0.82326,-0.21325 1.31212,-0.3708 1.48211,-0.48565 2.96695,-1.10288 4.48341,-1.75698 4.22299,-1.82697 8.3512,-3.90213 12.39827,-6.14526 l 10e-6,-1e-5 c 3.92374,-2.18506 7.73839,-4.41513 11.06628,-7.12865 1.12335,-0.94579 2.13345,-1.77966 2.71281,-2.70404 0,0 0,0 0,0 0.1623,-0.30395 0.28335,-0.45338 0.24287,-0.45295 -0.0456,0.12171 0.0119,0.27597 0.14286,0.5744 0,1e-5 0,1e-5 0,1e-5 0.14377,-0.0724 -0.30313,-0.11987 -0.84133,-0.29606 -0.90736,-0.15038 -2.00105,0.0555 -3.2023,0.3316 -3.28566,0.81695 -6.39616,2.56006 -9.23761,4.7044 0,0 0,0 0,0 -3.07705,2.38168 -5.75744,5.25309 -7.22381,8.60711 l 0,1e-5 c -1.4592,3.24134 -1.55912,7.15222 -0.14811,10.36255 -0.0454,-0.13567 -0.16183,-0.23578 -0.38679,-0.38529 0,0 0,0 0,0 -0.19258,-0.0373 -0.17138,-0.0807 -0.006,-0.0489 0.63936,0.0164 1.47643,-0.40756 2.53185,-0.86372 2.98679,-1.41821 5.79792,-3.44758 8.70885,-5.52658 2.73784,-1.96768 5.45782,-4.0837 8.34481,-6.09026 0.48467,-0.33743 0.99536,-0.68281 1.5417,-1.01987 0.34549,-0.22211 0.79647,-0.48192 1.37336,-0.72859 0.16538,-0.083 0.46104,-0.17434 0.8889,-0.25428 10e-6,0 2e-5,-1e-5 3e-5,-1e-5 0.23129,-0.15249 0.82914,-0.0526 1.77006,0.33432 4e-5,3e-5 8e-5,7e-5 1.3e-4,1.1e-4 0.87671,0.74486 1.27862,1.43456 1.21302,2.03253 0,3e-5 0,6e-5 -1e-5,9e-5 -0.0129,0.65058 -0.0849,1.05443 -0.18226,1.20857 -0.47366,1.37036 -0.83831,2.86092 -1.25241,4.42031 -0.51971,1.96974 -1.03285,3.96367 -1.59402,5.96684 0,1e-5 0,1e-5 0,1e-5 -0.42963,1.55936 -0.88877,3.24379 -1.61378,4.95681 -0.0143,0.30256 -0.38051,1.01112 -1.29017,1.93299 -0.40545,0.55577 -1.36027,0.68035 -2.81586,0.3123 -5e-5,-1e-5 -9e-5,-2e-5 -1.4e-4,-3e-5 -1.00359,-0.79477 -1.42709,-1.34892 -1.32188,-1.57725 -0.25405,-0.51837 -0.39569,-0.911 -0.54126,-0.92376 0,0 -1e-5,0 -1e-5,0 0.02,-0.0303 -0.12136,-0.0399 -0.26545,-0.046 -0.71441,-0.0753 -1.65745,0.66098 -2.86833,1.43541 -1.08638,0.79215 -2.13309,1.76766 -3.23573,2.79752 -0.26032,0.25536 -0.63755,0.62853 -1.18854,1.04787 -0.61787,-0.31229 -1.3429,-0.57618 -2.17833,-0.79866 -5e-5,-2e-5 -10e-5,-3e-5 -1.5e-4,-4e-5 -0.16738,-0.22245 -0.33937,-0.42459 -0.50969,-0.63166 -2e-5,-2e-5 -4e-5,-5e-5 -6e-5,-7e-5 -0.13727,-0.16688 -0.25891,-0.34122 -0.37578,-0.49855 -1e-5,-3e-5 -3e-5,-5e-5 -5e-5,-7e-5 -0.24824,-0.33417 -0.48563,-0.61268 -0.7259,-0.83625 0.83175,-2.13244 0.61044,-4.81939 0.37995,-7.66344 0,0 0,0 0,-1e-5 -0.35906,-3.54714 -1.14526,-7.06735 -2.25312,-10.49516 l 0,-1e-5 c -1.04432,-3.16519 -2.25342,-6.19487 -4.05179,-8.70236 -0.68675,-0.93449 -1.35613,-1.7546 -2.10872,-2.25387 -0.55707,-0.33211 -1.0645,-0.59606 -1.37153,-0.50778 l -0.28969,-4.67142 c 1.73345,-0.0383 3.23372,0.50585 4.35002,1.34821 1.37738,0.99566 2.424,2.19154 3.24043,3.3812 2.1841,3.12011 3.60392,6.57028 4.68395,9.96383 1.203,3.70681 2.05711,7.54991 2.45683,11.46381 0,0 0,1e-5 0,1e-5 0.36052,2.96725 0.49957,6.33502 -0.62673,9.70591 -0.27177,-0.13504 -0.54065,-0.32308 -0.79293,-0.56337 -1e-5,-2e-5 -3e-5,-3e-5 -5e-5,-5e-5 -0.11878,-0.11315 -0.23152,-0.23322 -0.32735,-0.38468 -0.11888,-0.1879 -0.23414,-0.41755 -0.35203,-0.66373 -4e-5,-2e-5 -9e-5,-4e-5 -1.3e-4,-5e-5 -0.7426,-0.26703 -1.38295,-0.59068 -1.91784,-0.96393 0.1494,-0.0951 0.38226,-0.34822 0.75546,-0.68771 1.11347,-1.05099 2.30346,-2.14576 3.66555,-3.15528 1.24794,-1.03486 3.01851,-2.07163 5.35093,-2.33694 1.12183,-0.0851 2.28342,0.22386 3.32601,0.94402 1.17196,0.95418 1.85478,2.06607 2.16482,3.08154 0.19346,0.0116 -0.12403,-0.27807 -0.90107,-0.95431 -2e-5,0 -5e-5,-1e-5 -7e-5,-1e-5 -1.29231,-0.28263 -2.04542,-0.23493 -2.30792,0.20452 -0.27994,0.40942 -0.36282,0.296 -0.0571,-0.14759 0.56454,-1.29365 0.95525,-2.78414 1.40847,-4.37496 0,-1e-5 1e-5,-1e-5 1e-5,-1e-5 0.54354,-1.93864 1.05044,-3.90965 1.5753,-5.89809 0.39639,-1.51179 0.79378,-3.11045 1.35068,-4.74459 -0.0279,-0.0483 -0.0377,0.14451 -0.0631,0.58142 -0.0731,0.47016 0.27758,1.02636 1.04465,1.7052 4e-5,3e-5 7e-5,6e-5 1.1e-4,9e-5 0.81256,0.30959 1.24861,0.41641 1.33168,0.28592 0,0 0,0 0,0 0.18929,-0.0445 0.256,-0.0528 0.19818,-0.0443 -0.14817,0.0504 -0.37296,0.19522 -0.6948,0.38373 0,10e-6 0,10e-6 0,10e-6 -0.42968,0.2635 -0.868,0.56153 -1.32457,0.87783 -2.74922,1.90798 -5.44867,4.00949 -8.28319,6.04671 -2.90186,2.09869 -5.94868,4.26782 -9.41594,5.94587 -1.10428,0.57993 -2.52193,1.15454 -4.27356,1.31565 -0.63386,0.0802 -1.44075,-0.0351 -2.35117,-0.4273 -1e-5,0 -2e-5,-1e-5 -3e-5,-1e-5 -0.87987,-0.47331 -1.50542,-1.15592 -1.83918,-1.96286 -1.90981,-4.51956 -1.80053,-9.68343 0.17617,-14.12151 1.94158,-4.26292 5.09984,-7.73761 8.65743,-10.41692 l 1e-5,-1e-5 c 3.18755,-2.45465 6.86016,-4.46943 10.92393,-5.51941 1.46237,-0.4005 3.14183,-0.64128 4.95963,-0.43642 1.40003,0.0765 2.95381,0.82148 4.16195,2.38854 0,1e-5 1e-5,2e-5 1e-5,3e-5 0.54968,0.94343 0.7199,1.91045 0.54036,2.78943 0,1e-5 0,1e-5 0,2e-5 -0.21259,0.97343 -0.57204,1.71685 -0.95805,2.23492 0,0 0,1e-5 -1e-5,1e-5 -1.10233,1.59677 -2.42698,2.77612 -3.65643,3.74048 -3.7057,2.9968 -7.74716,5.38008 -11.7467,7.58828 l -1e-5,10e-6 c -4.15731,2.30598 -8.42243,4.44852 -12.809,6.3474 -1.56007,0.6773 -3.17668,1.34461 -4.87872,1.90723 -0.54613,0.18318 -1.15511,0.36672 -1.83417,0.50985 -0.23691,0.12901 -0.89583,0.19872 -1.94782,0.0464 z"
         fill="none"
         stroke="#8b0000"
         stroke-width="8"
         stroke-linecap="round"
         id="path6375"
         style="fill:#fff9f5;fill-opacity:1;stroke:#51921e;stroke-width:0.767011;stroke-linecap:round;stroke-linejoin:round;stroke-miterlimit:21.4;stroke-dasharray:none;stroke-opacity:1;paint-order:markers stroke fill"
         sodipodi:nodetypes="csssssc"
         inkscape:original-d="m 100.61567,193.39024 c 3.00958,0.73258 38.14948,-16.41712 34.77425,-21.61589 -3.93878,-6.06678 -32.24152,8.50721 -24.76614,25.90767 2.55739,5.95284 27.16834,-17.20569 25.73431,-13.02492 -1.38814,4.04699 -4.48232,18.67164 -5.47828,15.96351 -2.83788,-7.71657 -12.55758,5.03997 -11.88086,3.13797 2.9524,-8.29807 -3.97181,-33.22545 -11.75485,-32.7428"
         transform="matrix(1.2615382,0,0,1.3473979,1.5478628,-32.21723)"
         inkscape:path-effect="#path-effect6393"
         class="UnoptimicedTransforms"
         inkscape:label="leaf2" />
      <path
         d="m 159.84109,192.21279 c -1.57876,-0.0547 -3.25104,-0.1487 -4.9824,-0.45864 -0.68711,-0.0172 -1.81707,-0.30882 -3.12403,-1.2373 -0.45533,-0.31181 -0.83112,-0.92803 -1.06695,-1.83576 -0.0724,-0.84328 0.0424,-1.48262 0.30077,-1.89382 1e-5,-1e-5 1e-5,-1e-5 1e-5,-1e-5 0.53833,-0.9281 1.07678,-1.47535 1.45317,-1.7281 0,0 0,0 0,0 0.46682,-0.40125 0.87198,-0.70516 1.1692,-0.96657 0.26271,-0.42845 0.34304,-0.28314 -0.033,0.32859 -0.14082,0.62051 -0.006,1.19141 0.41125,1.76522 0.46617,0.37888 0.63452,0.54222 0.57437,0.43327 -0.34799,-0.15757 -1.01856,-0.11631 -1.9306,-0.16887 -2.08903,0.0115 -4.46776,-0.2717 -6.78208,-1.41941 l -1e-5,0 c -1.65768,-0.83943 -2.97677,-2.38553 -3.51518,-4.41479 -0.38506,-2.09078 -0.0147,-3.98486 0.63193,-5.48573 0.807,-2.06435 1.9293,-3.88033 3.12177,-5.50918 -0.46172,1.5371 -0.41993,2.44612 0.19258,2.79361 0.31862,0.23982 0.39852,0.33034 0.28155,0.22873 -0.30297,-0.14882 -0.76772,-0.24777 -1.351,-0.39327 -1.74358,-0.40139 -3.56209,-0.6218 -5.41719,-0.74429 l -1e-5,0 c -1.93169,-0.10676 -3.75635,-0.15756 -5.37989,0.19639 0,0 0,0 0,0 -0.59339,0.15807 -1.03375,0.24448 -1.19995,0.40732 0.0408,0.0475 0.0202,-0.066 0.17087,-0.44621 -0.076,2.52477 -0.40024,4.76817 0.40588,6.20128 0.15474,0.18942 0.15189,0.30068 0.0272,0.14272 -0.18036,-0.0392 -0.18383,-0.0784 -0.10576,-0.0566 0,0 0,0 0,0 0.32009,0.0269 0.87732,-0.36639 1.75661,-0.79021 0.12016,-0.1259 0.62474,-0.38149 1.55306,-0.6163 1e-5,0 2e-5,-1e-5 3e-5,-1e-5 0.37297,-0.26767 1.16432,-0.0248 2.32532,0.76845 0.69159,1.1927 0.8897,1.90721 0.65668,2.09212 -0.10547,0.61993 -0.20694,0.94175 -0.25332,0.97367 0,0 0,0 0,0 -0.1133,0.30225 -0.22684,0.57367 -0.33173,0.81752 -0.32925,0.76978 -0.66848,1.51269 -0.99828,2.23708 l 0,0 c -0.90932,1.99909 -1.81779,3.97315 -2.66522,5.94844 -0.76381,1.80141 -1.51139,3.48215 -1.93267,5.12864 -0.0498,0.61831 -0.21784,0.75397 -0.16938,0.35571 0.0313,-0.44253 -0.44974,-0.88511 -1.44318,-1.4183 -1e-5,0 -3e-5,-1e-5 -4e-5,-2e-5 -0.93357,-0.0249 -1.32193,-0.0385 -1.19297,0.0751 1.92566,-0.98998 3.70706,-2.33906 5.34849,-3.88181 0,0 10e-6,0 10e-6,0 1.12732,-1.05977 2.24639,-2.37628 3.62634,-3.67589 0,0 0,0 10e-6,0 0.34862,-0.39208 0.98213,-0.90399 1.97389,-1.35949 1e-5,0 1e-5,0 1e-5,-1e-5 1.0556,-0.41193 2.22431,-0.25333 3.32389,0.49798 0.9864,0.9643 1.43866,1.85148 1.55546,2.43456 0.42973,1.18155 0.6926,2.31856 0.90758,3.36574 l -4.57914,0.96828 c -0.21894,-1.00496 -0.41839,-1.92274 -0.71733,-2.70807 -0.27352,-0.47047 -0.25211,-0.69328 -0.13447,-0.44143 0.55939,0.30832 0.95067,0.39536 1.35608,0.23897 0,0 0,0 0,0 0.0455,-0.0836 -0.0915,0.11439 -0.4846,0.41775 -1.12747,1.05146 -2.24248,2.36415 -3.61414,3.66441 -1e-5,0 -1e-5,0 -1e-5,0 -1.88859,1.79098 -4.02346,3.39103 -6.40889,4.63473 -0.16957,0.26825 -0.89762,0.40495 -2.15625,0.29417 -1.23814,-0.59787 -1.87216,-1.28613 -1.90207,-1.97422 -0.19971,-1.39348 -0.0269,-2.30275 0.18369,-2.67653 0.56598,-2.1145 1.3889,-4.01444 2.1587,-5.78624 0.87974,-2.04893 1.8018,-4.05376 2.70601,-6.04073 l 0,0 c 0.33159,-0.72931 0.65626,-1.4392 0.95459,-2.13803 0.0972,-0.22897 0.18323,-0.43163 0.24931,-0.61124 0,-1e-5 0,-1e-5 0,-1e-5 0.0495,-0.22559 0.0609,-0.161 -0.0167,0.18558 -0.21395,-0.003 -0.008,0.49743 0.55617,1.55148 1.05721,0.6805 1.67235,0.91955 1.89415,0.67727 0.33153,-0.13447 0.31093,-0.0454 -0.10113,0.11679 -0.73869,0.45195 -1.81603,1.01735 -3.31693,1.30663 0,0 -1e-5,1e-5 -1e-5,1e-5 -0.80896,0.14966 -1.74872,0.0284 -2.72392,-0.42486 -1.10774,-0.66998 -1.79954,-1.50855 -2.11114,-2.32467 -1.28001,-3.06519 -1.09681,-6.07315 -0.82901,-8.49494 0.22622,-1.46767 0.92684,-2.53686 1.86945,-3.10165 1.04379,-0.65858 2.04577,-0.98226 2.8848,-1.11915 0,0 0,0 0,0 2.30939,-0.45591 4.54887,-0.43395 6.62434,-0.28292 l 1e-5,0 c 2.03636,0.12786 4.1026,0.38433 6.16036,0.85247 0.62339,0.13052 1.37128,0.32349 2.20039,0.67535 1e-5,0 1e-5,0 1e-5,0 0.18791,0.0332 0.57998,0.26615 1.13436,0.74164 0.73623,0.47117 0.85585,1.57949 0.29164,3.25838 -1.05026,1.47379 -1.98045,2.93493 -2.54543,4.44464 -0.36339,1.13017 -0.66816,2.12292 -0.43504,2.78174 0.0186,0.44814 0.54316,0.9564 1.13164,1.30124 1e-5,1e-5 1e-5,1e-5 1e-5,1e-5 1.16572,0.68711 2.84779,0.79054 4.69211,0.88012 0.83556,-0.0179 1.95205,0.0152 3.26834,0.39196 0,0 0,0 1e-5,0 0.29904,0.006 0.83898,0.3139 1.55048,0.97936 0.57636,0.7601 0.7662,1.59536 0.56383,2.45326 -0.56178,1.32807 -1.12725,1.96732 -1.42243,2.02509 -0.47089,0.40803 -0.88173,0.71686 -1.18624,0.98134 0,0 0,0 0,0 -0.29929,0.33043 -0.45874,0.38841 -0.31617,0.26031 0,-1e-5 0,-1e-5 0,-1e-5 0.11405,-0.11945 0.13984,-0.42817 0.12093,-0.95036 -0.17809,-0.56101 -0.3307,-0.87714 -0.51823,-0.96127 -0.20317,0.01 0.19716,-0.0444 0.93517,0.19926 1.33339,0.25109 2.78461,0.32073 4.31924,0.38559 z"
         fill="none"
         stroke="#8b0000"
         stroke-width="8"
         stroke-linecap="round"
         id="path6377"
         style="fill:#fff9f5;fill-opacity:1;stroke:#51921e;stroke-width:0.767011;stroke-linecap:round;stroke-linejoin:round;stroke-miterlimit:21.4;stroke-dasharray:none;stroke-opacity:1;paint-order:markers stroke fill"
         sodipodi:nodetypes="csssssc"
         inkscape:original-d="m 159.9309,189.87432 c -16.58698,-0.63701 3.06367,-5.5581 -7.27157,-5.76326 -10.17271,-0.20195 -9.75752,-6.11267 -4.69343,-13.11843 0.83315,-1.1526 -16.62952,-3.87451 -16.9342,0.50908 -1.06276,15.29057 6.84285,5.52963 6.62543,7.66687 -0.11774,1.15746 -8.87723,18.13988 -5.58202,16.43255 9.72226,-5.03735 11.15175,-14.70088 13.36951,-4.21269"
         transform="matrix(1.2615382,0,0,1.3473979,-74.726507,-66.501748)"
         inkscape:path-effect="#path-effect6397"
         class="UnoptimicedTransforms"
         inkscape:label="leaf1" />
      <path
         d="m 105.73945,186.46774 c 0.0179,0.19863 0.60066,-0.21843 1.59207,-0.51964 1.10405,-0.52124 2.12975,-1.23908 3.01657,-2.09664 0.80066,-0.85797 1.48597,-1.6388 1.59013,-2.36276 0.16924,-0.34331 -0.0764,-0.97835 -0.44249,-1.31534 -0.12702,-0.0685 -0.0437,-0.0505 0.22775,0.11286 0,0 1e-5,1e-5 1e-5,1e-5 0.2695,0.24621 0.84962,0.1707 1.79393,-0.17568 1e-5,-1e-5 1e-5,-1e-5 2e-5,-2e-5 0.62287,-0.58206 0.90521,-0.90415 0.81425,-1.03066 0,0 0,0 0,-1e-5 0.0213,-0.14472 0.0393,-0.15294 0.022,-0.0361 -0.0409,0.90301 0.31278,1.99876 0.67708,3.28126 0.44131,1.37291 0.8976,2.63987 1.55378,3.65966 0,0 0,0 0,0 0.28637,0.35772 0.36097,0.56656 0.32542,0.46637 -0.3966,-0.32132 -0.91978,-0.24077 -1.81001,0.13773 2.15936,-1.66761 4.53829,-2.56373 6.69553,-3.22284 2.71375,-0.8812 5.49566,-1.51604 8.30005,-1.92754 2.25409,-0.35569 4.72924,-0.61604 7.33915,-0.27459 0,0 0,0 0,0 0.74207,0.0218 1.80205,0.3095 2.98449,1.10779 0,0 1e-5,0 1e-5,0 0.48544,0.33864 0.89984,0.91276 1.18798,1.71017 0.19992,0.86357 0.16154,1.58778 -0.0666,2.12954 -0.93407,2.72636 -1.80601,5.56774 -2.92213,8.41194 -0.39337,1.06413 -0.89248,2.34012 -1.77617,3.64457 0,0 0,0 0,1e-5 0.0708,0.32706 -0.62624,0.9187 -2.17111,1.50588 -2e-5,0 -3e-5,0 -4e-5,0 -0.94455,0.0641 -1.69221,-0.17434 -2.21303,-0.69162 -1e-5,-1e-5 -2e-5,-1e-5 -3e-5,-2e-5 -0.51283,-0.57287 -0.77078,-1.00558 -0.80574,-1.25996 -0.15422,-0.40669 -0.43142,-0.78667 -0.74737,-0.96174 -0.35673,-0.26714 -0.96363,-0.38654 -1.67159,-0.48527 -1.81095,-0.21844 -3.84188,0.24872 -6.00482,0.78496 0,0 -1e-5,0 -1e-5,0 -1.96365,0.51438 -3.95599,1.22032 -6.03957,1.9021 0,0 0,0 -1e-5,0 -0.5717,0.1988 -1.30275,0.44737 -2.21939,0.61234 -0.0756,0.1235 -0.63992,0.11625 -1.66546,-0.11682 -0.51576,-0.1134 -1.01043,-0.60522 -1.46428,-1.47449 -3e-5,-5e-5 -5e-5,-1e-4 -8e-5,-1.6e-4 -0.19083,-0.92685 -0.18128,-1.50597 0.006,-1.72644 10e-6,-10e-6 2e-5,-2e-5 3e-5,-4e-5 0.42332,-1.06792 1.00301,-1.86418 1.5872,-2.41704 0,0 0,0 0,0 0.75856,-0.76998 1.55439,-1.38818 2.32079,-1.90888 2.07384,-1.42365 4.23213,-2.54056 6.31549,-3.57983 5.39488,-2.70932 10.82427,-5.10089 15.87763,-7.95857 l 0,0 c 2.50712,-1.41965 4.9179,-2.91843 7.0912,-4.64396 l 1e-5,-1e-5 c 1.89196,-1.51988 3.60934,-3.13516 4.77681,-4.99884 0.99572,-1.59606 1.63601,-3.39729 1.55647,-5.09961 -7e-5,-2.04104 -0.99885,-4.16011 -2.30912,-6.13283 l 3.8522,-2.65832 c 1.71712,2.4143 2.9914,5.37725 3.13561,8.66446 0.0433,2.83553 -0.84215,5.5195 -2.29207,7.74785 -1.60639,2.47398 -3.66995,4.47211 -5.81537,6.14741 l 0,10e-6 c -2.45267,1.93545 -5.06473,3.56948 -7.69504,5.04973 l 0,0 c -5.32556,3.00085 -10.82193,5.42811 -16.07858,8.06564 -2.05113,1.03614 -4.02268,2.04242 -5.75526,3.24792 -0.63314,0.446 -1.19614,0.86713 -1.62228,1.31769 0,0 0,0 -1e-5,0 -0.30306,0.36124 -0.53238,0.59384 -0.53608,0.7261 0.15445,-0.12728 0.14189,-0.60241 -0.0153,-1.43633 -3e-5,-4e-5 -5e-5,-9e-5 -8e-5,-1.4e-4 -0.42517,-0.79012 -0.8464,-1.22651 -1.28339,-1.31017 -0.73574,-0.12369 -0.97483,-0.1964 -0.74476,-0.12303 0.36173,-0.0447 0.85908,-0.23611 1.51831,-0.44099 l 0,0 c 2.0159,-0.66264 4.09658,-1.39469 6.30461,-1.98043 l 0,0 c 2.29668,-0.6398 4.87845,-1.15102 7.65735,-0.91711 1.17958,0.0873 2.46714,0.44061 3.71358,1.18698 1.24721,0.81317 2.15498,1.97336 2.63908,3.30236 0.062,0.009 -0.077,-0.15745 -0.38494,-0.53817 -0.38548,-0.39033 -0.94384,-0.55576 -1.70502,-0.52003 -2e-5,0 -4e-5,0 -6e-5,0 -0.99193,0.50157 -1.33127,0.55271 -0.93806,0.42247 1e-5,0 1e-5,-1e-5 1e-5,-1e-5 0.46195,-0.60415 0.78436,-1.55241 1.24608,-2.66139 0,0 0,0 0,0 1.0325,-2.61625 1.88049,-5.39256 2.85028,-8.21673 -0.0739,0.0921 -0.0546,0.32073 0.009,0.72886 0,0 0,1e-5 1e-5,1e-5 0.15897,0.36511 0.27612,0.5716 0.40666,0.63166 0,0 1e-5,0 1e-5,0 0.1383,-0.0213 -0.1764,0.009 -0.74867,-0.15499 0,0 -1e-5,0 -1e-5,-1e-5 -1.81088,-0.28243 -3.84095,-0.0234 -6.00392,0.27069 -2.56257,0.37801 -5.08941,0.9531 -7.53487,1.74828 -2.04262,0.70554 -3.92926,1.3363 -5.21867,2.42679 -1.42248,0.80415 -2.73621,0.80522 -3.70071,0.10713 -0.90385,-0.67625 -1.43827,-1.3572 -1.70488,-1.88267 0,0 0,-1e-5 -1e-5,-1e-5 -0.96796,-1.57416 -1.59206,-3.20697 -2.05721,-4.75721 -0.44113,-1.31481 -0.86474,-2.88334 -0.88697,-4.69959 -0.0146,-0.27625 0.0261,-0.6816 0.15432,-1.20461 0,0 0,-1e-5 0,-2e-5 -0.0215,-0.37207 0.37094,-0.94891 1.21023,-1.66615 1e-5,-1e-5 3e-5,-2e-5 4e-5,-4e-5 1.14641,-0.4726 1.99116,-0.51469 2.48071,-0.17709 1e-5,10e-6 2e-5,10e-6 2e-5,10e-6 0.65648,0.32332 1.05985,0.62521 1.23242,0.84671 1.50399,1.47328 2.18055,3.5977 1.73514,5.7835 -0.5566,1.99491 -1.67174,3.52724 -2.87963,4.61726 -1.24688,1.21181 -2.69234,2.22036 -4.27585,2.96877 -0.97978,0.63 -2.59793,1.15229 -4.69826,0.83531 z"
         fill="none"
         stroke="#8b0000"
         stroke-width="8"
         stroke-linecap="round"
         id="path6379"
         style="fill:#fff9f5;fill-opacity:1;stroke:#51921e;stroke-width:0.767011;stroke-linecap:round;stroke-linejoin:round;stroke-miterlimit:21.4;stroke-dasharray:none;stroke-opacity:1;paint-order:markers stroke fill"
         sodipodi:nodetypes="csssssc"
         inkscape:original-d="m 105.18597,188.74154 c 3.00958,0.73258 12.45494,-5.87652 7.93744,-10.24961 -3.12716,-3.02719 1.10675,11.78895 3.43811,9.92448 5.21089,-4.16732 24.19946,-7.24515 22.76543,-3.06438 -1.38814,4.04699 -4.48231,14.27046 -5.47827,11.56233 -2.83788,-7.71657 -20.47456,2.02865 -19.79784,0.12665 2.9524,-8.29807 51.52609,-17.71309 36.93778,-38.85319"
         transform="matrix(1.2615382,0,0,1.3473979,-1.7142007,-76.546989)"
         inkscape:path-effect="#path-effect6401"
         class="UnoptimicedTransforms"
         inkscape:label="leaf0" />
    </g>
    <path
       d="m 117.81774,212.23018 c 0.45695,-2.86638 0.27488,-5.9176 -0.10825,-9.02797 -0.41746,-3.28412 -1.09202,-6.63707 -1.61005,-10.1204 -0.55801,-3.70668 -0.90568,-7.53643 -0.71009,-11.43581 0.2314,-4.40302 1.20869,-8.75887 2.88917,-12.83901 1.00913,-2.45685 1.5579,-5.09656 1.51073,-7.69974 l 0,0 c -0.0193,-2.29207 -0.50889,-4.67589 -1.10015,-7.13833 -0.60447,-2.45263 -1.32435,-5.02154 -1.76344,-7.78294 -0.47395,-2.98573 -0.50239,-6.0995 0.0877,-9.17499 l 5.1037,0.99838 c -0.47459,2.36716 -0.43466,4.88076 -0.0532,7.37447 0.35901,2.35092 1.04986,4.77481 1.67637,7.34787 0.64956,2.60347 1.18868,5.37327 1.24886,8.29624 l -1e-5,1e-5 c 0.0439,3.36893 -0.63548,6.69569 -1.90258,9.76091 -1.45574,3.52822 -2.30459,7.31416 -2.50384,11.12927 -0.18669,3.39577 0.14451,6.8799 0.66069,10.39897 0.49181,3.3096 1.17122,6.69764 1.6246,10.22565 0.44398,3.35962 0.6201,6.89287 0.0904,10.47408 z"
       fill="none"
       stroke="#8b0000"
       stroke-width="8"
       stroke-linecap="round"
       id="path6383"
       style="fill:#fff9f5;fill-opacity:1;stroke:#51921e;stroke-width:1.53402;stroke-linecap:round;stroke-linejoin:round;stroke-miterlimit:21.4;stroke-dasharray:none;stroke-opacity:1;paint-order:markers stroke fill"
       sodipodi:nodetypes="csc"
       inkscape:original-d="m 120.38804,212.62351 c 1.96845,-12.86331 -6.64433,-25.99229 0.29447,-42.82558 5.23443,-12.69855 -3.44292,-20.39917 -1.1173,-32.28774"
       transform="matrix(1.2780381,0,0,1.1883292,-26.095354,-12.14885)"
       inkscape:path-effect="#path-effect6405"
       class="UnoptimicedTransforms"
       inkscape:label="stem" />
  </g>
  <g
     id="g6337"
     inkscape:label="plant">
    <g
       id="g6323"
       inkscape:label="leaves">
      <path
         d="m 161.4496,176.47359 c -3.4944,-0.1511 -7.15403,0.66044 -10.02931,2.8463 -2.10844,1.62214 -3.67732,3.94556 -4.30794,6.55564 -0.25527,1.04761 -0.35138,2.16279 -0.20053,3.28084 0.10825,0.90064 0.43923,1.84395 1.10176,2.63907 0,10e-6 0,10e-6 0,10e-6 0.64566,0.73101 1.56466,1.15353 2.53546,1.17121 1.27007,-0.0188 2.37753,-0.52304 3.25808,-1.13888 l 0,0 c 1.74549,-1.20085 2.78816,-3.02976 3.4874,-4.78969 0.89992,-2.14444 1.39573,-4.49615 1.27739,-6.86456 -0.096,-2.27765 -0.9627,-4.62685 -2.78012,-6.22101 -1e-5,0 -1e-5,0 -1e-5,0 -2.43944,-1.98792 -5.68764,-2.28921 -8.54729,-1.93588 -0.66436,0.13896 -1.04978,0.4082 -1.21145,0.57981 -0.46997,0.3309 -0.90536,0.66986 -1.33124,0.98231 0,0 0,0 0,0 -1.27586,0.93321 -2.59827,1.7753 -4.00008,2.40154 0,0 0,0 0,0 -1.82401,0.81718 -3.80146,1.29386 -5.78145,1.32793 -2.59846,0.0556 -5.21116,-0.65293 -7.61386,-1.78944 -0.84246,-0.43913 -1.89627,-0.8891 -3.14468,-0.84776 -0.37729,0.007 -0.80507,0.14581 -1.2158,0.45667 0,1e-5 0,1e-5 -1e-5,1e-5 -0.35189,0.3202 -0.55908,0.69815 -0.62932,1.07407 0,0 0,10e-6 0,10e-6 -0.16315,0.93811 0.0412,1.75953 0.3036,2.38997 0,0 0,0 0,0 0.33847,0.9377 0.79876,1.79983 1.30234,2.60134 0,1e-5 0,1e-5 0,1e-5 1.05586,1.70958 2.37118,3.34586 4.07469,4.58217 0.5965,0.46374 1.38089,0.89496 2.35397,1.00325 0.40675,0.0376 0.8432,-0.0365 1.26435,-0.24229 0.44222,-0.24384 0.76791,-0.57893 0.97525,-0.94343 1.40573,-2.29273 3.23602,-4.38253 5.58478,-5.33486 1.45292,-0.59066 3.09598,-0.79566 4.47723,-0.29216 0.46574,0.17665 0.88389,0.37803 1.13252,0.66671 0.11047,0.1998 0.24972,0.33172 0.17543,0.27022 0,0 0,0 0,0 0.11059,0.0128 -0.16047,0.0844 -0.44872,0.27148 -0.65955,0.26433 -1.47945,0.27024 -2.35483,0.26042 -0.54493,-0.0315 -1.11044,-0.25245 -1.29819,-0.64028 0,0 0,0 0,-1e-5 -0.34755,-0.48153 -0.36361,-1.24845 -0.33599,-2.05554 0.15519,-2.38921 1.27152,-4.70805 2.62744,-6.85339 l 0,0 c 1.49777,-2.3005 3.36482,-4.39891 5.72286,-5.52411 1.03352,-0.495 2.15576,-0.7915 3.23683,-0.72251 1.1577,0.0531 2.31,0.54394 3.29285,1.26316 l 1.06257,-1.43506 c -1.21296,-0.90664 -2.68664,-1.51348 -4.257,-1.61101 -1.45259,-0.0709 -2.868,0.2847 -4.11634,0.89969 -2.75984,1.36434 -4.8674,3.67643 -6.44437,6.16515 -1.47215,2.25964 -2.68125,4.85687 -2.90576,7.68855 -0.10194,0.97425 0.003,2.10017 0.60337,3.13252 0.65864,0.96426 1.71192,1.46439 2.76151,1.47776 0.94101,0.0413 1.98552,-0.002 3.02866,-0.37215 0.58648,-0.13894 1.2279,-0.62718 1.55982,-1.5213 0,-1e-5 0,-1e-5 0,-2e-5 0.11667,-0.84397 -0.16575,-1.52319 -0.60493,-1.91213 -0.55155,-0.5684 -1.2091,-0.92573 -1.85074,-1.13453 -1.9168,-0.64448 -3.98536,-0.4264 -5.75373,0.33141 -2.82717,1.21439 -4.9376,3.54632 -6.42521,6.06125 0,0 0,0 0,0 -0.0955,0.13878 -0.18411,0.25181 -0.26391,0.27724 -0.0597,0.0422 -0.17838,0.0519 -0.31111,0.0487 -0.42363,0.003 -0.90537,-0.31822 -1.446,-0.67234 -1.44594,-1.02884 -2.60392,-2.49713 -3.60266,-4.07823 l 0,0 c -0.45784,-0.73832 -0.86261,-1.48576 -1.13575,-2.25726 -0.17316,-0.58667 -0.35675,-1.07922 -0.2412,-1.40339 0,0 0,0 0,0 0.0279,-0.0685 0.0363,-0.11868 0.0331,-0.0909 0,0 0,0 0,0 -0.0232,-0.0141 0.0626,-0.0155 0.18985,-0.0433 0.63565,-0.0871 1.39324,0.30648 2.25602,0.67869 2.59707,1.24235 5.47645,2.00857 8.41389,1.96234 2.24156,-0.0436 4.4518,-0.57239 6.4798,-1.48421 1e-5,0 1e-5,0 1e-5,0 1.5559,-0.70135 2.98661,-1.60652 4.32494,-2.59073 1e-5,0 1e-5,0 1e-5,0 0.45389,-0.33283 0.87959,-0.66483 1.30215,-0.96143 0.33209,-0.17553 0.43844,-0.33985 0.37424,-0.26504 2.63312,-0.23379 5.43239,-0.071 7.20051,1.52045 0,0 0,0 1e-5,0 1.37383,1.12063 2.03179,3.04747 2.15392,4.95391 0.11213,2.05185 -0.33864,4.14349 -1.14227,6.08436 -0.70602,1.61007 -1.52822,3.17197 -2.82597,3.98864 0,0 0,0 -1e-5,0 -0.76956,0.47809 -1.5413,0.88324 -2.25089,0.84166 -0.44723,0.001 -0.92356,-0.21612 -1.20743,-0.55612 -1e-5,0 -1e-5,0 -1e-5,0 -0.37963,-0.40566 -0.57062,-1.04097 -0.68177,-1.71507 -0.12261,-0.84471 -0.0371,-1.73929 0.16862,-2.61903 0.51536,-2.18083 1.86877,-4.17134 3.66157,-5.55691 2.41566,-1.89327 5.68903,-2.58142 8.87053,-2.47614 z"
         fill="none"
         stroke="#8b0000"
         stroke-width="8"
         stroke-linecap="round"
         id="path5789-3"
         style="fill:#7daa14;fill-opacity:1;stroke:#51921e;stroke-width:1.53402;stroke-linecap:round;stroke-linejoin:round;stroke-miterlimit:21.4;stroke-dasharray:none;stroke-opacity:1;paint-order:markers stroke fill"
         sodipodi:nodetypes="csssssc"
         inkscape:original-d="m 161.41534,177.36574 c -16.58698,-0.63701 -16.53831,19.31103 -8.10155,13.7179 4.73793,-3.141 8.8976,-19.76892 -5.97441,-18.17925 -1.40636,0.15033 -8.51361,9.08395 -20.41656,3.42061 -9.74249,-4.63541 2.12692,13.42029 4.90301,8.80744 7.55783,-12.55834 18.99469,-2.53278 9.30627,-2.80536 -7.70974,-0.2169 3.82119,-23.53295 13.80219,-16.14267"
         transform="matrix(1.2615382,0,0,1.3473979,-79.576599,-21.863634)"
         inkscape:path-effect="#path-effect5793-2"
         class="UnoptimicedTransforms"
         inkscape:label="leaf3" />
      <path
         d="m 100.87802,192.31247 c -0.0538,0.0361 0.1019,-0.0427 0.43809,-0.0737 0.46477,-0.0937 0.9455,-0.24308 1.44942,-0.40737 1.53995,-0.5059 3.05945,-1.1363 4.58738,-1.7965 4.26601,-1.84589 8.43023,-3.93876 12.5063,-6.19843 3.94368,-2.19115 7.81798,-4.46151 11.24523,-7.24954 1.15125,-0.95067 2.24409,-1.8754 2.96099,-2.97662 0,0 0,0 0,-1e-5 0.22114,-0.36026 0.40489,-0.66591 0.43096,-0.92161 0,0 0,0 0,0 0.0136,-0.14148 0.0113,-0.28212 -0.0368,-0.31031 0,0 0,0 0,0 -0.21178,-0.46546 -0.9498,-0.69643 -1.71466,-0.84639 -1.14681,-0.1647 -2.39456,0.0503 -3.66449,0.35917 -3.49031,0.87824 -6.74865,2.6928 -9.68112,4.91876 -3.20343,2.45995 -6.0095,5.49003 -7.60085,9.08309 l 0,1e-5 c -1.59531,3.55609 -1.69769,7.79651 -0.15549,11.35117 0.0543,0.11224 0.13303,0.21799 0.19865,0.23228 0,0 0,0 0,0 0.0975,0.0757 0.32535,0.074 0.61401,0.0763 0.93189,-0.0303 1.92166,-0.49386 2.98993,-0.98257 3.11316,-1.48655 5.98627,-3.55268 8.89481,-5.63686 2.76327,-1.98597 5.47785,-4.09817 8.32861,-6.07881 0.47728,-0.33187 0.96893,-0.66479 1.48459,-0.98251 0.33928,-0.21327 0.73076,-0.44286 1.1949,-0.63789 0.13709,-0.0634 0.33744,-0.12854 0.603,-0.17575 0,0 1e-5,0 2e-5,0 0.1486,-0.0781 0.47454,-0.0325 0.95428,0.17119 3e-5,2e-5 5e-5,4e-5 7e-5,5e-5 0.4444,0.37044 0.64839,0.73247 0.61925,1.04952 0,2e-5 0,3e-5 -1e-5,5e-5 -0.003,0.36456 -0.0533,0.61149 -0.11774,0.73779 -0.49555,1.43973 -0.86881,2.95873 -1.27826,4.50559 0,1e-5 0,1e-5 0,1e-5 -0.52106,1.97466 -1.03256,3.96257 -1.58909,5.94877 -0.43584,1.56763 -0.87698,3.20105 -1.55979,4.80378 0,0 0,1e-5 0,1e-5 -0.0909,0.33965 -0.33904,0.89168 -0.93583,1.46341 -0.22978,0.29403 -0.73542,0.37329 -1.4683,0.17638 -3e-5,-1e-5 -5e-5,-2e-5 -8e-5,-2e-5 -0.53527,-0.40789 -0.76388,-0.7401 -0.73723,-0.91144 -0.26878,-0.64911 -0.55275,-1.23091 -0.96826,-1.49127 -10e-6,0 -10e-6,0 -10e-6,0 -0.25944,-0.21173 -0.66915,-0.30004 -1.07038,-0.28217 -1e-5,0 -1e-5,0 -1e-5,0 -1.13995,0.0143 -2.30064,0.8296 -3.52126,1.67252 -1.15889,0.84932 -2.24329,1.8562 -3.34877,2.89161 -0.29001,0.27749 -0.62927,0.61909 -1.07464,0.95315 -0.31471,-0.132 -0.68067,-0.24137 -1.1011,-0.33511 -0.0924,-0.0992 -0.1888,-0.18778 -0.28306,-0.29096 -0.076,-0.0832 -0.13598,-0.18011 -0.19089,-0.26632 -1e-5,-1e-5 -2e-5,-2e-5 -2e-5,-3e-5 -0.1166,-0.18308 -0.22083,-0.33887 -0.32643,-0.46812 -10e-6,-10e-6 -10e-6,-2e-5 -2e-5,-3e-5 0.92249,-2.46897 0.57925,-5.38787 0.23128,-8.31769 -0.48603,-3.73312 -1.39328,-7.41979 -2.56258,-11.02805 l 0,0 c -1.04782,-3.21071 -2.23638,-6.35239 -3.94856,-9.14718 -0.58735,-0.9383 -1.16231,-1.81164 -1.88883,-2.40516 -0.24719,-0.19376 -0.45694,-0.35052 -0.63869,-0.39706 -0.11598,-0.0279 -0.21889,-0.0472 -0.24752,-0.02 l -0.67984,-2.11174 c 0.57651,-0.16759 1.13907,-0.1462 1.62644,0.0263 0.56346,0.2009 1.01697,0.49422 1.36998,0.80674 1.02009,0.87973 1.74954,1.93318 2.35228,2.94547 1.84448,3.03464 3.10515,6.33325 4.16491,9.61794 l 0,1e-5 c 1.20533,3.71019 2.14245,7.52938 2.65223,11.42561 0.42072,2.9594 0.72739,6.22189 -0.34098,9.34848 -1e-5,-1e-5 -2e-5,-1e-5 -3e-5,-1e-5 -0.13709,-0.0407 -0.27281,-0.10606 -0.39344,-0.19526 -0.0568,-0.042 -0.10791,-0.0846 -0.14243,-0.15238 -0.0428,-0.084 -0.0825,-0.20011 -0.1254,-0.32305 -0.32759,-0.13828 -0.60887,-0.30742 -0.84059,-0.50038 0.25502,-0.18037 0.52585,-0.46507 0.86936,-0.78243 1.11063,-1.04543 2.26293,-2.10884 3.55251,-3.06119 1.23819,-0.96637 2.79112,-1.9241 4.69799,-2.09984 0,0 1e-5,0 1e-5,0 0.86468,-0.0611 1.75794,0.16911 2.52106,0.70783 0,0 0,0 1e-5,0 0.90202,0.70659 1.4425,1.62931 1.73782,2.51404 0.11491,0.0686 -0.008,8.6e-4 -0.31643,-0.2885 -1e-5,0 -2e-5,0 -3e-5,0 -0.56959,-0.11149 -0.87349,-0.10911 -0.96033,0.0686 0,0 0,0 0,0 0.0329,0.0593 0.0682,-0.21065 0.29723,-0.61714 0,0 0,0 1e-5,-1e-5 0.60674,-1.40395 1.01545,-2.94544 1.46247,-4.52799 0.54818,-1.95561 1.05672,-3.93266 1.58023,-5.91618 l 0,0 c 0.40104,-1.52431 0.78982,-3.09454 1.32483,-4.6593 0.005,-0.0761 0.0168,-0.0403 0.001,0.11065 0,0 0,1e-5 0,2e-5 -0.0366,0.18924 0.11617,0.41776 0.45092,0.72215 0.35139,0.12641 0.51552,0.17886 0.51591,0.12279 0.027,-0.0118 -0.002,0.006 -0.0877,0.0342 -0.26093,0.10199 -0.5452,0.27709 -0.87326,0.47444 -0.46037,0.28285 -0.91772,0.59333 -1.38168,0.91518 -2.78545,1.93392 -5.4903,4.03924 -8.2994,6.05817 -2.90424,2.09351 -5.88907,4.22588 -9.22997,5.83559 -1.09143,0.54738 -2.35638,1.08237 -3.81548,1.1968 -0.51067,0.0507 -1.11092,-0.0228 -1.73125,-0.30205 -1e-5,-1e-5 -1e-5,-1e-5 -2e-5,-1e-5 -0.5893,-0.30951 -1.0197,-0.78626 -1.25375,-1.34529 -1.77862,-4.17522 -1.6718,-9.00955 0.1688,-13.13288 l 0,-10e-6 c 1.8166,-4.02388 4.84917,-7.3399 8.28038,-9.94094 l 10e-6,0 c 3.09652,-2.37304 6.62129,-4.31637 10.48041,-5.30506 1.3937,-0.36779 2.9191,-0.59939 4.49745,-0.40885 1.17337,0.10269 2.43604,0.66426 3.28862,1.83821 0,0 0,1e-5 1e-5,1e-5 0.37068,0.61683 0.48099,1.28894 0.36067,1.90474 0,0 0,10e-6 -1e-5,10e-6 -0.14603,0.7173 -0.44278,1.30451 -0.76995,1.76626 0,0 0,0 -1e-5,1e-5 -0.96479,1.41993 -2.20671,2.50841 -3.40825,3.46788 -3.60634,2.92231 -7.58814,5.26529 -11.56775,7.4674 l -1e-5,1e-5 c -4.12832,2.28945 -8.35743,4.41427 -12.70098,6.29424 -1.5486,0.6712 -3.13055,1.32534 -4.77474,1.86771 -0.53107,0.17644 -1.09429,0.34779 -1.69688,0.47329 -0.27233,0.094 -0.75167,0.16697 -1.40906,0.0561 z"
         fill="none"
         stroke="#8b0000"
         stroke-width="8"
         stroke-linecap="round"
         id="path2566-5"
         style="fill:#7daa14;fill-opacity:1;stroke:#51921e;stroke-width:1.53402;stroke-linecap:round;stroke-linejoin:round;stroke-miterlimit:21.4;stroke-dasharray:none;stroke-opacity:1;paint-order:markers stroke fill"
         sodipodi:nodetypes="csssssc"
         inkscape:original-d="m 100.61567,193.39024 c 3.00958,0.73258 38.14948,-16.41712 34.77425,-21.61589 -3.93878,-6.06678 -32.24152,8.50721 -24.76614,25.90767 2.55739,5.95284 27.16834,-17.20569 25.73431,-13.02492 -1.38814,4.04699 -4.48232,18.67164 -5.47828,15.96351 -2.83788,-7.71657 -12.55758,5.03997 -11.88086,3.13797 2.9524,-8.29807 -5.66251,-34.28076 -10.43987,-32.7428"
         transform="matrix(1.2615382,0,0,1.3473979,1.5478628,-32.21723)"
         inkscape:path-effect="#path-effect5711-6"
         class="UnoptimicedTransforms"
         inkscape:label="leaf2" />
      <path
         d="m 159.96516,188.98217 c -1.54827,-0.0617 -3.06786,-0.13889 -4.52432,-0.40819 -0.72226,-0.17364 -1.34823,-0.22626 -1.61206,-0.52026 -0.0113,-0.0383 -0.0221,-0.0105 0.028,0.0963 -0.009,0.0999 0.008,0.11547 0.009,0.0708 0,0 0,0 0,0 0.068,-0.19852 0.34465,-0.40781 0.66778,-0.71421 0,0 0,0 1e-5,0 0.3547,-0.30678 0.76378,-0.61409 1.18096,-0.97678 0.28514,-0.1724 0.70059,-0.56902 0.97235,-1.29722 0.0962,-0.40071 0.007,-0.80113 -0.26229,-1.14872 -0.34731,-0.34251 -0.66822,-0.50443 -0.89339,-0.54251 0,0 0,0 0,0 -1.01685,-0.30895 -1.99544,-0.31907 -2.85465,-0.32298 -1.91999,-0.0583 -3.8175,-0.21734 -5.33842,-1.04689 0,0 0,0 0,0 -0.91913,-0.49779 -1.68942,-1.327 -1.86875,-2.26409 -0.2801,-1.10165 0.045,-2.37313 0.49593,-3.61794 0.63982,-1.68122 1.62942,-3.2521 2.72366,-4.77384 0.24694,-0.68436 0.17724,-1.16883 -0.1419,-1.38684 -0.28441,-0.25428 -0.53053,-0.38719 -0.6965,-0.44156 0,0 0,0 0,0 -0.66641,-0.28906 -1.32673,-0.45296 -1.93773,-0.58811 -1.96059,-0.4475 -3.95022,-0.69282 -5.93054,-0.81902 -2.031,-0.13734 -4.1422,-0.16822 -6.23949,0.25616 l -1e-5,0 c -0.76307,0.14344 -1.59137,0.39375 -2.36377,0.89902 -0.63851,0.40481 -1.12882,1.10829 -1.23849,2.00449 -0.20849,2.45364 -0.43531,5.22517 0.69816,7.78564 0,0 0,1e-5 0,1e-5 0.26309,0.62231 0.74007,1.23596 1.46668,1.6499 1e-5,0 1e-5,1e-5 1e-5,1e-5 0.61786,0.30094 1.26593,0.3726 1.84887,0.27597 1.13574,-0.19152 2.05224,-0.70369 2.83441,-1.14694 0,0 0,0 0,0 0.32179,-0.15095 0.49206,-0.29153 0.55013,-0.27126 -0.0379,0.0846 -0.21806,-0.005 -0.58929,-0.23019 -0.17568,-0.35925 -0.25683,-0.48369 -0.18111,-0.42472 0.021,-0.0477 -0.0182,0.007 -0.0668,0.17291 0,0 -1e-5,1e-5 -1e-5,1e-5 -0.0807,0.21754 -0.17524,0.44146 -0.27479,0.67503 0,0 0,0 0,0 -0.3079,0.72078 -0.63707,1.44087 -0.96811,2.16866 -0.90579,1.99072 -1.82364,3.98603 -2.69339,6.01219 -0.76795,1.78096 -1.56757,3.61311 -2.08881,5.58289 0,0 0,0 0,0 -0.16088,0.44939 -0.33219,1.11943 -0.17926,1.95882 0,1e-5 0,1e-5 1e-5,1e-5 0.0303,0.33845 0.31953,0.677 0.86755,0.92509 0.58071,0.0688 0.96351,-0.0298 1.12052,-0.17997 2.18437,-1.1328 4.20607,-2.55619 6.03145,-4.18831 0,0 1e-5,0 1e-5,0 1.27402,-1.14113 2.40364,-2.37183 3.55256,-3.52107 0,0 0,-1e-5 0,-1e-5 0.3631,-0.35425 0.67425,-0.67629 0.9956,-0.87247 0,0 0,0 0,0 0.2042,-0.0556 0.27048,-0.16112 0.11541,-0.11173 -0.0404,-0.11308 -0.008,0.0853 0.18975,0.33557 0.26164,0.52078 0.41625,1.1497 0.5878,1.82634 l 1.73431,-0.425 c -0.16364,-0.69118 -0.36143,-1.43943 -0.71731,-2.18432 -0.12184,-0.40426 -0.50279,-0.90681 -1.23478,-1.24821 -0.745,-0.14536 -1.31873,0.0241 -1.63778,0.3034 -0.53141,0.34962 -0.94251,0.75204 -1.29544,1.11361 0,1e-5 -1e-5,1e-5 -1e-5,1e-5 -1.18637,1.18537 -2.29181,2.39321 -3.47997,3.45245 -1.72307,1.53903 -3.62197,2.87776 -5.66306,3.93428 -0.14152,0.005 -0.0984,0.0562 0.15724,0.0391 0,0 1e-5,0 1e-5,1e-5 0.30335,0.18341 0.43959,0.27629 0.4087,0.36918 0,0 0,1e-5 0,1e-5 -0.0952,-0.15583 0.0743,-0.53073 0.1738,-1.07341 0.46603,-1.79122 1.23691,-3.53975 2.00257,-5.332 0.85743,-1.99807 1.7701,-3.98164 2.67784,-5.97698 0.33035,-0.72592 0.66508,-1.45861 0.98477,-2.20645 0.1025,-0.23925 0.20754,-0.48941 0.30624,-0.75374 0.0473,-0.0918 0.12097,-0.29413 0.16981,-0.61517 0.0948,-0.12853 0.0217,-0.46745 -0.28162,-0.96536 -0.47504,-0.33752 -0.83145,-0.43135 -1.02049,-0.32136 -0.53872,0.12061 -0.89363,0.32471 -1.10406,0.46182 0,0 0,1e-5 0,1e-5 -0.83581,0.43251 -1.55388,0.87901 -2.23913,0.94991 -0.30409,0.0312 -0.59231,0.0208 -0.76931,-0.0923 0,0 0,0 0,0 -0.25644,-0.0981 -0.46841,-0.43425 -0.67165,-0.81747 0,-1e-5 0,-1e-5 0,-1e-5 -0.95268,-1.93781 -0.67205,-4.41765 -0.53674,-6.91057 -0.0341,-0.19122 0.19674,-0.44351 0.46009,-0.65095 0.43759,-0.31615 1.05163,-0.47593 1.72098,-0.62745 l 1e-5,0 c 1.83563,-0.38548 3.78857,-0.3436 5.76472,-0.22315 l 1e-5,0 c 1.91115,0.12415 3.80628,0.35571 5.64701,0.77774 0.59569,0.14087 1.148,0.2689 1.61367,0.4805 0,0 0,0 1e-5,0 0.1389,0.0805 0.20495,0.09 0.1563,0.0714 -0.19541,-0.0943 -0.18729,-0.37949 -0.0428,-0.92207 -1.14849,1.5809 -2.21138,3.28715 -2.94354,5.17998 -0.55902,1.38623 -0.90912,3.00158 -0.57104,4.64953 0.37765,1.54031 1.45105,2.76547 2.77808,3.45194 0,1e-5 1e-5,1e-5 1e-5,1e-5 1.95913,1.00527 4.12241,1.23287 6.13577,1.25264 0.88839,0.0308 1.69685,0.0125 2.34429,0.23786 0,0 0,0 0,0 0.13402,0.0772 0.18471,0.0595 0.0827,0.004 -0.10973,-0.1613 -0.1444,-0.29735 -0.10972,-0.46067 0.086,-0.0119 -0.14433,0.0855 -0.41708,0.39927 -0.35093,0.30675 -0.75784,0.61218 -1.17446,0.97113 -1e-5,0 -1e-5,0 -1e-5,10e-6 -0.35254,0.27677 -0.77379,0.67271 -1.10156,1.27419 0,0 0,0 0,1e-5 -0.14321,0.2471 -0.21452,0.59325 -0.17037,1.01427 0.10783,0.45353 0.32022,0.78142 0.57675,0.97079 0.83996,0.64443 1.74428,0.82906 2.44713,0.91629 1.6083,0.29174 3.21222,0.3782 4.77733,0.43605 z"
         fill="none"
         stroke="#8b0000"
         stroke-width="8"
         stroke-linecap="round"
         id="path5789"
         style="fill:#7daa14;fill-opacity:1;stroke:#51921e;stroke-width:1.53402;stroke-linecap:round;stroke-linejoin:round;stroke-miterlimit:21.4;stroke-dasharray:none;stroke-opacity:1;paint-order:markers stroke fill"
         sodipodi:nodetypes="csssssc"
         inkscape:original-d="m 159.9309,189.87432 c -16.58698,-0.63701 3.06367,-5.5581 -7.27157,-5.76326 -10.17271,-0.20195 -9.75752,-6.11267 -4.69343,-13.11843 0.83315,-1.1526 -16.62952,-3.87451 -16.9342,0.50908 -1.06276,15.29057 6.84285,5.52963 6.62543,7.66687 -0.11774,1.15746 -8.87723,18.13988 -5.58202,16.43255 9.72226,-5.03735 10.99699,-13.10697 12.75045,-5.9515"
         transform="matrix(1.2615382,0,0,1.3473979,-74.726507,-66.501748)"
         inkscape:path-effect="#path-effect5793"
         class="UnoptimicedTransforms"
         inkscape:label="leaf1" />
      <path
         d="m 105.44832,187.66377 c 0.56558,0.22976 1.42065,-0.21497 2.40901,-0.60266 1.23014,-0.58098 2.36624,-1.37528 3.34776,-2.32601 0.90776,-0.919 1.70612,-1.89748 1.92928,-2.9557 0.24187,-0.82789 -0.11713,-1.85465 -0.78247,-2.49049 -0.13899,-0.10874 -0.18366,-0.17489 -0.15628,-0.1395 0,0 0,0 0,0 0.0699,0.0927 0.27524,0.0481 0.66969,-0.0829 0.23832,-0.24035 0.34317,-0.32601 0.28181,-0.32139 0,0 0,0 0,0 -0.018,0.0309 -0.0155,0.13144 -0.0244,0.2902 -0.0243,1.1432 0.34778,2.3633 0.73228,3.65429 0.44758,1.41955 0.94801,2.78273 1.68618,3.94832 0,0 0,0 0,0 0.28118,0.40184 0.47671,0.73485 0.68823,0.83887 -0.0386,-0.0532 -0.0787,0.006 -0.36067,0.0733 1.93056,-1.51583 4.18001,-2.34216 6.30711,-3.01348 2.64319,-0.85857 5.35801,-1.4777 8.0988,-1.88039 2.23013,-0.33949 4.58822,-0.59949 6.98798,-0.27357 0,0 0,1e-5 0,1e-5 0.69742,0.0591 1.56138,0.26326 2.39647,0.85719 0,0 0,1e-5 0,1e-5 0.32343,0.23377 0.59803,0.60259 0.76857,1.09424 0,1e-5 1e-5,1e-5 1e-5,2e-5 0.13055,0.5291 0.0972,1.00272 -0.0515,1.37776 -0.94347,2.75209 -1.80911,5.57635 -2.90323,8.3606 -0.41135,1.07592 -0.86398,2.26572 -1.63675,3.38599 -1e-5,0 -1e-5,0 -1e-5,1e-5 -0.0512,0.27529 -0.4757,0.69788 -1.35339,0.99872 -1e-5,0 -1e-5,0 -2e-5,0 -0.49593,0.0379 -0.90011,-0.0944 -1.18257,-0.37296 0,0 0,0 -1e-5,-1e-5 -0.29695,-0.32207 -0.45052,-0.59714 -0.49259,-0.78704 -0.24098,-0.64926 -0.68402,-1.23445 -1.24489,-1.57733 -0.59073,-0.39318 -1.37665,-0.5741 -2.20864,-0.66982 -2.06553,-0.22252 -4.24133,0.25623 -6.43945,0.81971 0,0 0,0 0,0 -2.02793,0.53315 -4.0435,1.24596 -6.10928,1.9227 0,0 -1e-5,0 -1e-5,0 -0.59472,0.2004 -1.26431,0.43394 -2.035,0.56728 -0.11623,0.0717 -0.46925,0.0855 -1.03157,-0.0538 -0.26518,-0.0616 -0.51896,-0.30927 -0.74163,-0.74211 -1e-5,-2e-5 -2e-5,-5e-5 -4e-5,-8e-5 -0.0993,-0.46379 -0.089,-0.76565 0.009,-0.89465 0.30859,-0.81319 0.78741,-1.45953 1.29173,-1.96469 0,0 1e-5,-1e-5 1e-5,-1e-5 0.65849,-0.68289 1.38044,-1.24855 2.10051,-1.7489 1.94525,-1.3584 4.01715,-2.43926 6.05649,-3.46701 5.27461,-2.66675 10.64468,-5.02985 15.71784,-7.84718 l 1e-5,0 c 2.52959,-1.40555 4.98932,-2.90238 7.25313,-4.62913 l 0,-1e-5 c 1.98156,-1.51874 3.82491,-3.18164 5.19122,-5.14897 1.17083,-1.69452 1.9902,-3.63863 2.04503,-5.59669 0.10678,-2.21452 -0.75531,-4.46892 -1.99343,-6.47453 l 1.87868,-1.17992 c 1.4358,2.25183 2.41066,4.92686 2.33171,7.73641 -0.10967,2.4919 -1.06214,4.83266 -2.44432,6.78663 -1.57036,2.22945 -3.57149,4.05664 -5.66455,5.64183 l 0,0 c -2.38816,1.81699 -4.9372,3.37218 -7.52102,4.8042 -5.19382,2.88009 -10.58907,5.25655 -15.79342,7.88722 -2.02163,1.0252 -4.00287,2.05177 -5.78453,3.30415 -0.65572,0.46342 -1.26761,0.93461 -1.77032,1.46549 0,0 0,1e-5 0,1e-5 -0.37189,0.41073 -0.68836,0.79376 -0.80465,1.17476 0,-10e-6 1e-5,-10e-6 1e-5,-10e-6 0.0645,-0.0358 0.0527,-0.23369 -0.0129,-0.60449 0,-10e-6 -1e-5,-2e-5 -1e-5,-3e-5 -0.194,-0.35371 -0.37434,-0.54599 -0.56077,-0.57783 -0.27251,-0.0299 -0.3003,-0.0815 -0.11086,-0.0599 0.50767,-0.0763 1.06649,-0.28277 1.7027,-0.48605 2.0337,-0.66767 4.09115,-1.39286 6.2349,-1.95983 l 1e-5,0 c 2.2615,-0.61257 4.6984,-1.11219 7.22273,-0.88235 1.05553,0.0903 2.16408,0.38209 3.17652,1.00243 1.00229,0.64534 1.74422,1.60033 2.14156,2.68676 0.0549,0.0737 0.0203,0.0647 -0.0718,-0.0652 0,0 -1e-5,-1e-5 -1e-5,-1e-5 -0.14713,-0.15163 -0.362,-0.21082 -0.67457,-0.20135 -0.32474,0.21523 -0.39151,0.0973 -0.12034,-0.0847 1e-5,-1e-5 1e-5,-1e-5 1e-5,-1e-5 0.57287,-0.78834 0.94175,-1.82279 1.38549,-2.91997 0,0 0,0 1e-5,0 1.05449,-2.6762 1.90878,-5.46963 2.86917,-8.26807 0.006,-0.0746 0.0298,-0.0966 0.0243,-0.0229 0,0 0,0 0,0 0.0414,0.0594 0.0187,0.0605 -0.0127,0.0158 0,0 0,0 0,-1e-5 -0.20905,-0.22563 -0.71976,-0.27923 -1.33669,-0.40558 -1e-5,0 -1e-5,0 -1e-5,0 -2.02103,-0.29796 -4.16816,-0.0386 -6.35509,0.27171 -2.62617,0.38682 -5.2201,0.97763 -7.73612,1.79543 -2.07276,0.69333 -4.08887,1.39388 -5.60709,2.63615 -0.81422,0.49311 -1.64484,0.47272 -2.25137,0.0427 -0.65678,-0.47205 -1.07027,-1.02883 -1.34208,-1.51018 0,-1e-5 0,-1e-5 0,-1e-5 -0.88596,-1.42836 -1.46593,-2.96495 -1.92481,-4.46855 -0.42092,-1.30632 -0.82613,-2.7505 -0.83176,-4.32656 -0.006,-0.23433 0.0191,-0.53091 0.10796,-0.8783 0,0 0,-1e-5 0,-1e-5 0.008,-0.24094 0.22305,-0.58137 0.67778,-0.95689 1e-5,0 2e-5,-1e-5 3e-5,-2e-5 0.59653,-0.25721 1.06654,-0.26836 1.35646,-0.0843 0,0 0,1e-5 1e-5,1e-5 0.41244,0.19531 0.6878,0.41307 0.84839,0.59434 1.20471,1.17443 1.76794,2.90714 1.39517,4.60835 -0.43761,1.66065 -1.43971,2.99533 -2.54049,4.02432 -1.15218,1.11864 -2.48724,2.05073 -3.94466,2.73939 -0.98283,0.54353 -2.32867,1.03815 -3.88132,0.7523 z"
         fill="none"
         stroke="#8b0000"
         stroke-width="8"
         stroke-linecap="round"
         id="path2566"
         style="fill:#7daa14;fill-opacity:1;stroke:#51921e;stroke-width:1.53402;stroke-linecap:round;stroke-linejoin:round;stroke-miterlimit:21.4;stroke-dasharray:none;stroke-opacity:1;paint-order:markers stroke fill"
         sodipodi:nodetypes="csssssc"
         inkscape:original-d="m 105.18597,188.74154 c 3.00958,0.73258 12.45494,-5.87652 7.93744,-10.24961 -3.12716,-3.02719 1.10675,11.78895 3.43811,9.92448 5.21089,-4.16732 24.19946,-7.24515 22.76543,-3.06438 -1.38814,4.04699 -4.48231,14.27046 -5.47827,11.56233 -2.83788,-7.71657 -20.47456,2.02865 -19.79784,0.12665 2.9524,-8.29807 50.28799,-17.56819 37.55683,-37.83889"
         transform="matrix(1.2615382,0,0,1.3473979,-1.7142007,-76.546989)"
         inkscape:path-effect="#path-effect5711"
         class="UnoptimicedTransforms"
         inkscape:label="leaf0" />
    </g>
    <path
       d="m 119.353,212.46512 c 0.47868,-3.07987 0.29838,-6.27505 -0.10292,-9.45986 -0.42819,-3.35696 -1.10419,-6.72039 -1.6144,-10.15183 -0.54552,-3.65065 -0.88826,-7.37718 -0.69533,-11.12616 0.2218,-4.22743 1.16073,-8.41308 2.77409,-12.32839 1.08617,-2.63854 1.67395,-5.48344 1.62775,-8.31531 l 0,0 c -0.0315,-2.4805 -0.53588,-4.97959 -1.14456,-7.48414 -0.61105,-2.4886 -1.32226,-5.0142 -1.73743,-7.65301 -0.44633,-2.83879 -0.4782,-5.77332 0.0774,-8.63726 l 2.05524,0.40204 c -0.50909,2.57871 -0.47259,5.27155 -0.0635,7.9122 0.38293,2.47351 1.08245,4.94071 1.70237,7.47781 0.63216,2.56135 1.15646,5.21587 1.20445,7.95042 l 0,1e-5 c 0.0449,3.14024 -0.5955,6.26181 -1.78556,9.14534 -1.52286,3.69305 -2.41007,7.64919 -2.61891,11.63988 -0.18936,3.54618 0.14676,7.13353 0.67544,10.70863 0.49964,3.36148 1.1776,6.73904 1.62025,10.19422 0.42581,3.28518 0.60371,6.67447 0.0957,10.04219 z"
       fill="none"
       stroke="#8b0000"
       stroke-width="8"
       stroke-linecap="round"
       id="path5795-5-9"
       style="fill:#7daa14;fill-opacity:1;stroke:#51921e;stroke-width:1.53402;stroke-linecap:round;stroke-linejoin:round;stroke-miterlimit:21.4;stroke-dasharray:none;stroke-opacity:1;paint-order:markers stroke fill"
       sodipodi:nodetypes="csc"
       inkscape:original-d="m 120.38804,212.62351 c 1.96845,-12.86331 -6.64433,-25.99229 0.29447,-42.82558 5.23443,-12.69855 -3.44292,-20.39917 -1.1173,-32.28774"
       transform="matrix(1.2780381,0,0,1.1883292,-26.095354,-12.14885)"
       inkscape:path-effect="#path-effect5799-9-4"
       class="UnoptimicedTransforms"
       inkscape:label="stem" />
  </g>
  <g
     id="g6317"
     inkscape:label="petals">
    <g
       id="g6132"
       inkscape:label="back">
      <path
         d="m 71.596072,69.201435 c -5.266702,26.73589 -2.247538,49.456995 13.218386,67.269805 19.332422,22.266 41.114792,23.07266 56.182952,19.55347 4.75753,-15.39439 12.21245,-44.13539 -7.11995,-66.401397 C 118.41154,71.810499 97.484005,66.215967 71.596072,69.201435 Z"
         fill="url(#gPetal)"
         stroke="#8b0000"
         stroke-width="6.44341"
         stroke-linejoin="round"
         id="path5387"
         style="fill:#ffffff;fill-opacity:1;stroke:#ffb509;stroke-width:2.43402;stroke-dasharray:none;stroke-opacity:1"
         sodipodi:nodetypes="cscsc"
         inkscape:label="yellow" />
      <path
         d="m 187.2636,68.746585 c 4.79649,26.939384 1.28217,50.554285 -12.80288,68.502685 -17.60638,22.43546 -43.81846,22.86929 -57.54129,19.32332 -4.33277,-15.51156 -5.91225,-44.16512 11.69409,-66.600594 14.08506,-17.948388 35.07351,-24.233599 58.65008,-21.225411 z"
         fill="url(#gPetal)"
         stroke="#8b0000"
         stroke-width="5.95154"
         stroke-linejoin="round"
         id="path5389"
         style="fill:#effffb;fill-opacity:1;stroke:#7012e0;stroke-width:2.52434;stroke-dasharray:none;stroke-opacity:1;paint-order:normal"
         sodipodi:nodetypes="cccsc"
         inkscape:label="purple" />
      <path
         d="m 128.53201,36.54059 c -21.54031,17.809331 -28.11986,36.592499 -28.00277,61.080322 0.1171,24.487818 17.61691,44.523328 28.48288,55.654158 10.75956,-11.13083 27.59379,-30.92935 27.47671,-55.417172 -0.1171,-24.487823 -6.24616,-43.507977 -27.95682,-61.317308 z"
         fill="none"
         stroke="#8b0000"
         stroke-width="9.56575"
         stroke-linecap="round"
         opacity="0.9"
         id="path5391"
         style="opacity:1;fill:#fff9f5;fill-opacity:1;stroke:#32b8ff;stroke-width:2.17602;stroke-linecap:butt;stroke-linejoin:round;stroke-dasharray:none;stroke-opacity:1"
         sodipodi:nodetypes="cscsc"
         inkscape:label="blue" />
    </g>
    <g
       id="g6127"
       inkscape:label="front">
      <path
         d="M 75.034135,72.434657 C 70.488849,96.799259 74.27886,117.7136 87.62631,133.94653 c 16.68432,20.29117 40.02862,21.50715 53.03279,18.30008 4.10586,-14.02902 5.20442,-39.86796 -11.47989,-60.159133 C 115.83176,75.854538 97.37602,69.71398 75.034135,72.434657 Z"
         fill="url(#gPetal)"
         stroke="#8b0000"
         stroke-width="6.44341"
         stroke-linejoin="round"
         id="path2552"
         style="fill:#ffc709;fill-opacity:1;stroke:#ffb509;stroke-width:2.15858;stroke-dasharray:none;stroke-opacity:1"
         inkscape:label="yellow" />
      <path
         d="m 128.47978,41.597661 c -19.23655,15.904604 -23.97915,33.79729 -23.87459,55.666114 0.10458,21.868815 14.67456,39.761505 24.3784,49.701885 9.60882,-9.94038 24.00769,-27.83307 23.90313,-49.701885 -0.10457,-21.868824 -5.01825,-39.76151 -24.40694,-55.666114 z"
         fill="none"
         stroke="#8b0000"
         stroke-width="9.56575"
         stroke-linecap="round"
         opacity="0.9"
         id="path2554"
         style="opacity:1;fill:#8cd2f5;fill-opacity:1;stroke:#32b8ff;stroke-width:1.94329;stroke-linecap:butt;stroke-linejoin:round;stroke-dasharray:none;stroke-opacity:1"
         inkscape:label="blue" />
      <path
         d="m 184.32846,72.019249 c 4.37152,24.552583 0.55831,46.300611 -12.27882,62.658801 -16.04647,20.4477 -38.49825,21.67305 -51.00525,18.44125 -3.94889,-14.13725 -5.00544,-40.17554 11.04099,-60.623253 12.83714,-16.35818 30.75537,-23.218463 52.24308,-20.476798 z"
         fill="url(#gPetal)"
         stroke="#8b0000"
         stroke-width="5.95154"
         stroke-linejoin="round"
         id="path2764"
         style="fill:#7e34fb;fill-opacity:1;stroke:#7012e0;stroke-width:2.30069;stroke-dasharray:none;stroke-opacity:1;paint-order:normal"
         sodipodi:nodetypes="cccsc"
         inkscape:label="purple" />
    </g>
  </g>
</svg>
